<svg width="80" height="80" viewBox="0 0 80 80" fill="none" xmlns="http://www.w3.org/2000/svg">
<path d="M49.8334 40C49.8334 40.4444 49.7634 40.8611 49.6234 41.25C49.4856 41.6389 49.2501 42 48.9168 42.3333L33.5001 57.75C32.889 58.3611 32.1245 58.6522 31.2068 58.6233C30.2912 58.5967 29.5279 58.2778 28.9168 57.6667C28.3056 57.0556 28.0001 56.2778 28.0001 55.3333C28.0001 54.3889 28.3056 53.6111 28.9168 53L41.9167 40L28.8334 26.9167C28.2223 26.3056 27.9301 25.5411 27.9568 24.6233C27.9856 23.7078 28.3056 22.9445 28.9168 22.3333C29.5279 21.7222 30.3056 21.4167 31.2501 21.4167C32.1945 21.4167 32.9723 21.7222 33.5834 22.3333L48.9168 37.6667C49.2501 38 49.4856 38.3611 49.6234 38.75C49.7634 39.1389 49.8334 39.5556 49.8334 40Z" fill="white"/>
</svg>
