<svg width="14" height="12" viewBox="0 0 14 12" fill="none" xmlns="http://www.w3.org/2000/svg">
<path d="M11.9 11.3L7.30005 6.69996C7.20005 6.59996 7.12938 6.49163 7.08805 6.37496C7.04605 6.25829 7.02505 6.13329 7.02505 5.99996C7.02505 5.86663 7.04605 5.74163 7.08805 5.62496C7.12938 5.50829 7.20005 5.39996 7.30005 5.29996L11.9 0.69996C12.0834 0.516627 12.3124 0.420627 12.587 0.411961C12.8624 0.403961 13.1 0.49996 13.3 0.69996C13.4834 0.883294 13.575 1.11663 13.575 1.39996C13.575 1.68329 13.4834 1.91663 13.3 2.09996L9.42505 5.99996L13.3 9.89996C13.4834 10.0833 13.579 10.3123 13.587 10.587C13.5957 10.8623 13.5 11.1 13.3 11.3C13.1167 11.4833 12.8834 11.575 12.6 11.575C12.3167 11.575 12.0834 11.4833 11.9 11.3ZM5.30005 11.3L0.700048 6.69996C0.600048 6.59996 0.529382 6.49163 0.488049 6.37496C0.446049 6.25829 0.425049 6.13329 0.425049 5.99996C0.425049 5.86663 0.446049 5.74163 0.488049 5.62496C0.529382 5.50829 0.600048 5.39996 0.700048 5.29996L5.30005 0.69996C5.48338 0.516627 5.71272 0.420627 5.98805 0.411961C6.26272 0.403961 6.50005 0.49996 6.70005 0.69996C6.88338 0.883294 6.97505 1.11663 6.97505 1.39996C6.97505 1.68329 6.88338 1.91663 6.70005 2.09996L2.82505 5.99996L6.70005 9.89996C6.88338 10.0833 6.97938 10.3123 6.98805 10.587C6.99605 10.8623 6.90005 11.1 6.70005 11.3C6.51672 11.4833 6.28338 11.575 6.00005 11.575C5.71672 11.575 5.48338 11.4833 5.30005 11.3Z" fill="#FCFDFD"/>
</svg>
