<svg width="23" height="38" viewBox="0 0 23 38" fill="none" xmlns="http://www.w3.org/2000/svg">
<path d="M22.8334 19C22.8334 19.4444 22.7634 19.8611 22.6234 20.25C22.4856 20.6389 22.2501 21 21.9168 21.3333L6.50008 36.75C5.88897 37.3611 5.12453 37.6522 4.20675 37.6233C3.2912 37.5967 2.52786 37.2778 1.91675 36.6667C1.30564 36.0556 1.00008 35.2778 1.00008 34.3333C1.00008 33.3889 1.30564 32.6111 1.91675 32L14.9167 19L1.83342 5.91667C1.22231 5.30556 0.930084 4.54111 0.956751 3.62333C0.98564 2.70778 1.30564 1.94445 1.91675 1.33334C2.52786 0.722229 3.30564 0.416668 4.25008 0.416668C5.19453 0.416668 5.97231 0.722229 6.58342 1.33334L21.9168 16.6667C22.2501 17 22.4856 17.3611 22.6234 17.75C22.7634 18.1389 22.8334 18.5556 22.8334 19Z" fill="#1895BA"/>
</svg>
