<svg width="7" height="12" viewBox="0 0 7 12" fill="none" xmlns="http://www.w3.org/2000/svg">
<path d="M0.0500238 5.99994C0.0500238 5.86661 0.0710237 5.74161 0.113024 5.62494C0.154357 5.50827 0.225024 5.39994 0.325023 5.29994L4.95002 0.67494C5.13336 0.491607 5.36269 0.404274 5.63802 0.41294C5.91269 0.42094 6.14169 0.516607 6.32502 0.69994C6.50836 0.883273 6.60002 1.11661 6.60002 1.39994C6.60002 1.68327 6.50836 1.91661 6.32502 2.09994L2.42502 5.99994L6.35002 9.92494C6.53336 10.1083 6.62102 10.3376 6.61302 10.6129C6.60436 10.8876 6.50836 11.1166 6.32502 11.2999C6.14169 11.4833 5.90836 11.5749 5.62502 11.5749C5.34169 11.5749 5.10836 11.4833 4.92502 11.2999L0.325023 6.69994C0.225023 6.59994 0.154357 6.49161 0.113023 6.37494C0.0710237 6.25827 0.0500238 6.13327 0.0500238 5.99994Z" fill="#1895BA"/>
</svg>
