<svg width="23" height="38" viewBox="0 0 23 38" fill="none" xmlns="http://www.w3.org/2000/svg">
<path d="M0.166583 19C0.166583 18.5556 0.236583 18.1389 0.376582 17.75C0.51436 17.3611 0.749915 17 1.08325 16.6667L16.4999 1.25C17.111 0.638888 17.8755 0.347777 18.7932 0.376666C19.7088 0.403333 20.4721 0.722221 21.0832 1.33333C21.6944 1.94444 21.9999 2.72222 21.9999 3.66667C21.9999 4.61111 21.6944 5.38889 21.0832 6L8.08325 19L21.1666 32.0833C21.7777 32.6944 22.0699 33.4589 22.0432 34.3767C22.0144 35.2922 21.6944 36.0555 21.0832 36.6667C20.4721 37.2778 19.6944 37.5833 18.7499 37.5833C17.8055 37.5833 17.0277 37.2778 16.4166 36.6667L1.08325 21.3333C0.749915 21 0.51436 20.6389 0.376582 20.25C0.236583 19.8611 0.166583 19.4444 0.166583 19Z" fill="#1895BA"/>
</svg>
