<svg width="80" height="80" viewBox="0 0 80 80" fill="none" xmlns="http://www.w3.org/2000/svg">
<path d="M30.1666 40C30.1666 39.5556 30.2366 39.1389 30.3766 38.75C30.5144 38.3611 30.7499 38 31.0832 37.6667L46.4999 22.25C47.111 21.6389 47.8755 21.3478 48.7932 21.3767C49.7088 21.4033 50.4721 21.7222 51.0832 22.3333C51.6944 22.9444 51.9999 23.7222 51.9999 24.6667C51.9999 25.6111 51.6944 26.3889 51.0832 27L38.0833 40L51.1666 53.0833C51.7777 53.6944 52.0699 54.4589 52.0432 55.3767C52.0144 56.2922 51.6944 57.0555 51.0832 57.6667C50.4721 58.2778 49.6944 58.5833 48.7499 58.5833C47.8055 58.5833 47.0277 58.2778 46.4166 57.6667L31.0832 42.3333C30.7499 42 30.5144 41.6389 30.3766 41.25C30.2366 40.8611 30.1666 40.4444 30.1666 40Z" fill="white"/>
</svg>
