<svg width="7" height="12" viewBox="0 0 7 12" fill="none" xmlns="http://www.w3.org/2000/svg">
<path d="M6.3002 0.700013C6.48353 0.883347 6.5752 1.11668 6.5752 1.40001C6.5752 1.68335 6.48353 1.91668 6.3002 2.10001L2.4002 6.00001L6.3002 9.90001C6.48353 10.0833 6.5752 10.3167 6.5752 10.6C6.5752 10.8833 6.48353 11.1167 6.3002 11.3C6.11686 11.4833 5.88353 11.575 5.6002 11.575C5.31686 11.575 5.08353 11.4833 4.9002 11.3L0.300196 6.70001C0.200196 6.60001 0.129196 6.49168 0.0871959 6.37501C0.0458627 6.25835 0.0251956 6.13335 0.0251956 6.00001C0.0251956 5.86668 0.0458627 5.74168 0.0871959 5.62501C0.129196 5.50835 0.200196 5.40001 0.300196 5.30001L4.9002 0.700013C5.08353 0.51668 5.31686 0.425012 5.6002 0.425012C5.88353 0.425012 6.11686 0.51668 6.3002 0.700013Z" fill="white"/>
</svg>
