<svg width="100" height="100" viewBox="0 0 100 100" fill="none" xmlns="http://www.w3.org/2000/svg">
<path d="M19.25 75.5C23.5 72.25 28.25 69.6867 33.5 67.81C38.75 65.9367 44.25 65 50 65C55.75 65 61.25 65.9367 66.5 67.81C71.75 69.6867 76.5 72.25 80.75 75.5C83.6667 72.0833 85.9383 68.2083 87.565 63.875C89.1883 59.5417 90 54.9167 90 50C90 38.9167 86.105 29.4783 78.315 21.685C70.5217 13.895 61.0833 10 50 10C38.9167 10 29.48 13.895 21.69 21.685C13.8967 29.4783 10 38.9167 10 50C10 54.9167 10.8133 59.5417 12.44 63.875C14.0633 68.2083 16.3333 72.0833 19.25 75.5ZM50 55C45.0833 55 40.9367 53.3133 37.56 49.94C34.1867 46.5633 32.5 42.4167 32.5 37.5C32.5 32.5833 34.1867 28.4367 37.56 25.06C40.9367 21.6867 45.0833 20 50 20C54.9167 20 59.0633 21.6867 62.44 25.06C65.8133 28.4367 67.5 32.5833 67.5 37.5C67.5 42.4167 65.8133 46.5633 62.44 49.94C59.0633 53.3133 54.9167 55 50 55ZM50 100C43.0833 100 36.5833 98.6867 30.5 96.06C24.4167 93.4367 19.125 89.875 14.625 85.375C10.125 80.875 6.56333 75.5833 3.94 69.5C1.31333 63.4167 0 56.9167 0 50C0 43.0833 1.31333 36.5833 3.94 30.5C6.56333 24.4167 10.125 19.125 14.625 14.625C19.125 10.125 24.4167 6.56167 30.5 3.935C36.5833 1.31167 43.0833 0 50 0C56.9167 0 63.4167 1.31167 69.5 3.935C75.5833 6.56167 80.875 10.125 85.375 14.625C89.875 19.125 93.4367 24.4167 96.06 30.5C98.6867 36.5833 100 43.0833 100 50C100 56.9167 98.6867 63.4167 96.06 69.5C93.4367 75.5833 89.875 80.875 85.375 85.375C80.875 89.875 75.5833 93.4367 69.5 96.06C63.4167 98.6867 56.9167 100 50 100Z" fill="#FCFDFD"/>
</svg>
