<svg width="47" height="46" viewBox="0 0 47 46" fill="none" xmlns="http://www.w3.org/2000/svg">
<path d="M8.2995 40.6923C5.95281 38.5706 3.9515 36.192 2.48482 33.3678C-2.59652 23.594 0.339211 11.1116 9.24812 4.56985C12.9101 1.88241 17.0192 0.467972 21.5067 0.0271388C26.238 -0.175597 30.6995 0.746145 34.7849 3.17662C40.5074 6.57835 44.2474 11.5336 45.6195 17.9999C48.1152 29.7869 41.8345 40.3952 31.3879 44.3769C23.8558 47.2458 16.617 46.2628 9.88447 41.8144C9.34511 41.456 8.82704 41.0718 8.2995 40.6923ZM15.3632 23.627C17.0026 27.6134 18.6514 31.5974 20.2672 35.5932C20.4753 36.1048 20.8112 36.1283 21.2536 36.126C26.6945 36.126 32.1142 36.1118 37.5456 36.1401C38.2127 36.1401 38.357 35.935 38.357 35.308C38.3349 28.0645 38.3349 20.8186 38.357 13.5704C38.357 12.8962 38.1205 12.7594 37.5078 12.7665C35.2652 12.7972 33.0131 12.8019 30.7823 12.7665C30.1436 12.7665 29.8574 13.0023 29.6303 13.5633C28.4948 16.3309 27.3214 19.0843 26.1623 21.8401L23.1083 29.075C22.6706 28.587 22.5452 28.0755 22.3489 27.604C20.7971 23.8824 19.2484 20.1593 17.7028 16.4346C17.2841 15.3691 16.8512 14.313 16.4561 13.2356C16.2905 12.783 15.9452 12.8325 15.5998 12.8325C13.2839 12.8325 10.9703 12.8325 8.65671 12.8325C8.10316 12.8325 7.84058 12.941 7.84294 13.5775C7.86187 20.8634 7.86187 28.1501 7.84294 35.4376C7.84294 36.1307 8.12918 36.2556 8.71822 36.2391C9.83952 36.2132 10.9679 36.1778 12.0845 36.2509C12.9456 36.3051 13.2176 36.0576 13.2105 35.1642C13.1679 30.2136 13.1869 25.2631 13.1963 20.3125C13.1963 19.9448 13.0662 19.5464 13.3927 19.1338L15.3632 23.627ZM23.2502 18.205C24.3791 18.217 25.4666 17.7817 26.2735 16.9948C27.0805 16.2079 27.5408 15.1339 27.5533 14.0089C27.5321 12.8849 27.0747 11.8127 26.2772 11.0176C25.4797 10.2224 24.4041 9.76608 23.2762 9.74433C22.1472 9.75226 21.0663 10.2011 20.2657 10.9945C19.4651 11.7879 19.0087 12.8626 18.9945 13.9876C18.9913 14.5444 19.0994 15.0961 19.3124 15.6108C19.5255 16.1254 19.8392 16.5927 20.2353 16.9852C20.6314 17.3778 21.102 17.6878 21.6197 17.8972C22.1373 18.1067 22.6916 18.2113 23.2502 18.205V18.205Z" fill="#1895BA"/>
<path d="M33.2707 19.1975C33.2707 22.8067 33.2707 26.4159 33.2707 30.025C33.2707 30.4965 33.0578 30.6191 32.6343 30.6144C31.3734 30.6026 30.1149 30.6144 28.8493 30.6144C28.5039 30.6144 28.1893 30.6144 28.4141 30.1028C30.0203 26.4724 31.2954 22.71 33.2707 19.1975Z" fill="#1895BA"/>
</svg>
