<svg width="51" height="50" viewBox="0 0 51 50" fill="none" xmlns="http://www.w3.org/2000/svg">
<path d="M9.84546 44.2272C7.29484 41.9212 5.1196 39.3359 3.52546 36.2663C-1.99746 25.6431 1.1934 12.0759 10.8765 4.96567C14.8567 2.04469 19.3229 0.507328 24.2004 0.028185C29.3428 -0.19217 34.1921 0.809675 38.6326 3.45137C44.8523 7.14871 48.9173 12.5346 50.4086 19.5629C53.1212 32.3742 46.2947 43.9044 34.9403 48.232C26.7536 51.3503 18.8858 50.2818 11.5682 45.4469C10.9819 45.0574 10.4188 44.6398 9.84546 44.2272ZM17.523 25.679C19.3049 30.0118 21.097 34.342 22.8531 38.6851C23.0794 39.2411 23.4445 39.2667 23.9253 39.2641C29.8391 39.2641 35.7297 39.2487 41.6331 39.2795C42.3582 39.2795 42.5151 39.0566 42.5151 38.375C42.4911 30.502 42.4911 22.6265 42.5151 14.7484C42.5151 14.0156 42.258 13.867 41.592 13.8747C39.1545 13.908 36.7067 13.9131 34.2821 13.8747C33.5879 13.8747 33.2768 14.1309 33.0299 14.7407C31.7957 17.7488 30.5204 20.7415 29.2606 23.7368L25.9411 31.6004C25.4655 31.07 25.3292 30.514 25.1158 30.0015C23.4291 25.9566 21.7458 21.9099 20.066 17.8615C19.6109 16.7034 19.1403 15.5555 18.7109 14.3845C18.531 13.8926 18.1556 13.9464 17.7802 13.9464C15.263 13.9464 12.7483 13.9464 10.2337 13.9464C9.63206 13.9464 9.34665 14.0643 9.34923 14.7561C9.36979 22.6752 9.36979 30.5951 9.34923 38.5159C9.34923 39.2692 9.66034 39.405 10.3006 39.3871C11.5193 39.3589 12.7458 39.3205 13.9594 39.3999C14.8953 39.4588 15.191 39.1898 15.1833 38.2187C15.137 32.838 15.1576 27.4572 15.1678 22.0765C15.1678 21.6767 15.0264 21.2437 15.3813 20.7953L17.523 25.679ZM26.0954 19.7858C27.3225 19.7988 28.5044 19.3256 29.3815 18.4704C30.2585 17.6151 30.7589 16.4477 30.7724 15.225C30.7494 14.0033 30.2523 12.838 29.3855 11.9737C28.5187 11.1095 27.3496 10.6135 26.1237 10.5898C24.8965 10.5985 23.7217 11.0863 22.8515 11.9487C21.9814 12.811 21.4853 13.9791 21.4698 15.2019C21.4664 15.807 21.5839 16.4067 21.8154 16.9661C22.047 17.5255 22.388 18.0333 22.8185 18.46C23.2491 18.8866 23.7606 19.2236 24.3232 19.4512C24.8858 19.6789 25.4882 19.7926 26.0954 19.7858V19.7858Z" fill="#FCFDFD"/>
<path d="M20.0659 17.8692C21.7474 21.9159 23.4307 25.9625 25.1157 30.0092C25.3291 30.5217 25.4654 31.0777 25.941 31.6081L29.2605 23.7445C30.5203 20.7492 31.7957 17.7565 33.0298 14.7484C33.2869 14.1437 33.5878 13.8695 34.282 13.8823C36.7169 13.9208 39.1544 13.9156 41.5919 13.8823C42.2579 13.8823 42.5175 14.0233 42.515 14.7561C42.4893 22.6325 42.4893 30.508 42.515 38.3827C42.515 39.0642 42.3581 39.2897 41.633 39.2872C35.7193 39.2564 29.8287 39.2667 23.9252 39.2718C23.4444 39.2718 23.0793 39.2487 22.853 38.6927C21.0969 34.3369 19.3048 30.0195 17.5229 25.6867C18.2532 25.1307 18.5797 24.385 18.7623 23.4883C19.0965 21.8305 19.6673 20.2188 19.6519 18.4995C19.6524 18.3658 19.6918 18.2352 19.7652 18.1233C19.8387 18.0114 19.9431 17.9232 20.0659 17.8692ZM36.9869 20.8645C34.8399 24.6823 33.4541 28.7716 31.7185 32.7124C31.4614 33.2684 31.8162 33.2684 32.1916 33.2684C33.5621 33.2684 34.9299 33.2684 36.3055 33.2684C36.7658 33.2684 36.9997 33.1429 36.9972 32.6278C36.9792 28.7101 36.9869 24.7873 36.9869 20.8645Z" fill="#1794B1"/>
<path d="M20.066 17.8692C19.9425 17.9235 19.8375 18.0126 19.764 18.1254C19.6905 18.2383 19.6516 18.3701 19.652 18.5047C19.6675 20.2239 19.0967 21.8356 18.7624 23.4934C18.5799 24.3902 18.2482 25.1358 17.5231 25.6918L15.3787 20.8107C15.0239 21.254 15.1653 21.687 15.1653 22.0918C15.1653 27.4726 15.1345 32.8533 15.1807 38.2341C15.1807 39.2052 14.8928 39.4742 13.9568 39.4153C12.7432 39.3358 11.5168 39.3743 10.298 39.4025C9.65781 39.4204 9.34412 39.2846 9.3467 38.5313C9.37241 30.6122 9.37241 22.6922 9.3467 14.7714C9.3467 14.0796 9.62953 13.9566 10.2312 13.9618C12.7458 13.9823 15.2604 13.9618 17.7776 13.9618C18.153 13.9618 18.5284 13.908 18.7084 14.3999C19.1404 15.5581 19.6006 16.7111 20.066 17.8692Z" fill="#1895BA"/>
<path d="M26.0956 19.7858C25.4873 19.793 24.8837 19.6792 24.3201 19.4511C23.7566 19.223 23.2443 18.8851 22.8133 18.4573C22.3824 18.0295 22.0414 17.5203 21.8103 16.9596C21.5791 16.3989 21.4626 15.7978 21.4674 15.1917C21.4829 13.9688 21.979 12.8008 22.8491 11.9384C23.7193 11.0761 24.8941 10.5882 26.1213 10.5796C27.3472 10.6032 28.5163 11.0992 29.3831 11.9635C30.2499 12.8277 30.747 13.993 30.77 15.2147C30.7646 15.8208 30.6394 16.4199 30.4015 16.9778C30.1636 17.5356 29.8177 18.0413 29.3836 18.4658C28.9495 18.8904 28.4356 19.2254 27.8714 19.4519C27.3073 19.6784 26.7038 19.7919 26.0956 19.7858Z" fill="#1895BA"/>
</svg>
