<svg width="38" height="24" viewBox="0 0 38 24" fill="none" xmlns="http://www.w3.org/2000/svg">
<path d="M3.99984 23.6667C3.08317 23.6667 2.29873 23.3406 1.6465 22.6884C0.993171 22.035 0.666504 21.25 0.666504 20.3334V3.66671C0.666504 2.75004 0.993171 1.9656 1.6465 1.31337C2.29873 0.66004 3.08317 0.333374 3.99984 0.333374H20.6665C21.5832 0.333374 22.3682 0.66004 23.0215 1.31337C23.6737 1.9656 23.9998 2.75004 23.9998 3.66671V20.3334C23.9998 21.25 23.6737 22.035 23.0215 22.6884C22.3682 23.3406 21.5832 23.6667 20.6665 23.6667H3.99984ZM28.9998 10.3334C28.5276 10.3334 28.1321 10.1734 27.8132 9.85337C27.4932 9.53449 27.3332 9.13893 27.3332 8.66671V2.00004C27.3332 1.52782 27.4932 1.13171 27.8132 0.811708C28.1321 0.492819 28.5276 0.333374 28.9998 0.333374H35.6665C36.1387 0.333374 36.5343 0.492819 36.8532 0.811708C37.1732 1.13171 37.3332 1.52782 37.3332 2.00004V8.66671C37.3332 9.13893 37.1732 9.53449 36.8532 9.85337C36.5343 10.1734 36.1387 10.3334 35.6665 10.3334H28.9998ZM30.6665 7.00004H33.9998V3.66671H30.6665V7.00004ZM3.99984 20.3334H20.6665V3.66671H3.99984V20.3334ZM7.33317 17H17.3332C17.6665 17 17.9165 16.8473 18.0832 16.5417C18.2498 16.2362 18.2221 15.9445 17.9998 15.6667L15.2915 12.0417C15.1248 11.8195 14.9026 11.7084 14.6248 11.7084C14.3471 11.7084 14.1248 11.8195 13.9582 12.0417L11.4998 15.3334L9.87484 13.1667C9.70817 12.9445 9.48595 12.8334 9.20817 12.8334C8.93039 12.8334 8.70817 12.9445 8.5415 13.1667L6.6665 15.6667C6.44428 15.9445 6.4165 16.2362 6.58317 16.5417C6.74984 16.8473 6.99984 17 7.33317 17ZM28.9998 23.6667C28.5276 23.6667 28.1321 23.5067 27.8132 23.1867C27.4932 22.8678 27.3332 22.4723 27.3332 22V15.3334C27.3332 14.8612 27.4932 14.465 27.8132 14.145C28.1321 13.8262 28.5276 13.6667 28.9998 13.6667H35.6665C36.1387 13.6667 36.5343 13.8262 36.8532 14.145C37.1732 14.465 37.3332 14.8612 37.3332 15.3334V22C37.3332 22.4723 37.1732 22.8678 36.8532 23.1867C36.5343 23.5067 36.1387 23.6667 35.6665 23.6667H28.9998ZM30.6665 20.3334H33.9998V17H30.6665V20.3334Z" fill="url(#paint0_linear_25_4589)"/>
<defs>
<linearGradient id="paint0_linear_25_4589" x1="0.999878" y1="6.09148e-05" x2="36.9999" y2="30.0001" gradientUnits="userSpaceOnUse">
<stop stop-color="#21BEF1"/>
<stop offset="1" stop-color="#73BF2D"/>
</linearGradient>
</defs>
</svg>
