<svg width="32" height="32" viewBox="0 0 32 32" fill="none" xmlns="http://www.w3.org/2000/svg">
<path d="M25 18.3333C24.6222 18.3333 24.3058 18.2053 24.0507 17.9493C23.7947 17.6942 23.6667 17.3778 23.6667 17V14.3333H21C20.6222 14.3333 20.3058 14.2053 20.0507 13.9493C19.7947 13.6942 19.6667 13.3778 19.6667 13C19.6667 12.6222 19.7947 12.3053 20.0507 12.0493C20.3058 11.7942 20.6222 11.6667 21 11.6667H23.6667V9C23.6667 8.62222 23.7947 8.30533 24.0507 8.04933C24.3058 7.79422 24.6222 7.66667 25 7.66667C25.3778 7.66667 25.6942 7.79422 25.9493 8.04933C26.2053 8.30533 26.3333 8.62222 26.3333 9V11.6667H29C29.3778 11.6667 29.6942 11.7942 29.9493 12.0493C30.2053 12.3053 30.3333 12.6222 30.3333 13C30.3333 13.3778 30.2053 13.6942 29.9493 13.9493C29.6942 14.2053 29.3778 14.3333 29 14.3333H26.3333V17C26.3333 17.3778 26.2053 17.6942 25.9493 17.9493C25.6942 18.2053 25.3778 18.3333 25 18.3333ZM11.6667 15.6667C10.2 15.6667 8.94445 15.1444 7.9 14.1C6.85556 13.0556 6.33333 11.8 6.33333 10.3333C6.33333 8.86667 6.85556 7.61111 7.9 6.56667C8.94445 5.52222 10.2 5 11.6667 5C13.1333 5 14.3889 5.52222 15.4333 6.56667C16.4778 7.61111 17 8.86667 17 10.3333C17 11.8 16.4778 13.0556 15.4333 14.1C14.3889 15.1444 13.1333 15.6667 11.6667 15.6667ZM2.33333 26.3333C1.95556 26.3333 1.63911 26.2053 1.384 25.9493C1.128 25.6942 1 25.3778 1 25V22.6C1 21.8444 1.19467 21.1498 1.584 20.516C1.97244 19.8831 2.48889 19.4 3.13333 19.0667C4.51111 18.3778 5.91111 17.8609 7.33333 17.516C8.75556 17.172 10.2 17 11.6667 17C13.1333 17 14.5778 17.172 16 17.516C17.4222 17.8609 18.8222 18.3778 20.2 19.0667C20.8444 19.4 21.3609 19.8831 21.7493 20.516C22.1387 21.1498 22.3333 21.8444 22.3333 22.6V25C22.3333 25.3778 22.2053 25.6942 21.9493 25.9493C21.6942 26.2053 21.3778 26.3333 21 26.3333H2.33333ZM3.66667 23.6667H19.6667V22.6C19.6667 22.3556 19.6058 22.1333 19.484 21.9333C19.3613 21.7333 19.2 21.5778 19 21.4667C17.8 20.8667 16.5889 20.4164 15.3667 20.116C14.1444 19.8164 12.9111 19.6667 11.6667 19.6667C10.4222 19.6667 9.18889 19.8164 7.96667 20.116C6.74444 20.4164 5.53333 20.8667 4.33333 21.4667C4.13333 21.5778 3.97244 21.7333 3.85067 21.9333C3.728 22.1333 3.66667 22.3556 3.66667 22.6V23.6667ZM11.6667 13C12.4 13 13.028 12.7387 13.5507 12.216C14.0724 11.6942 14.3333 11.0667 14.3333 10.3333C14.3333 9.6 14.0724 8.97244 13.5507 8.45067C13.028 7.928 12.4 7.66667 11.6667 7.66667C10.9333 7.66667 10.3058 7.928 9.784 8.45067C9.26133 8.97244 9 9.6 9 10.3333C9 11.0667 9.26133 11.6942 9.784 12.216C10.3058 12.7387 10.9333 13 11.6667 13Z" fill="#C8C8C8"/>
</svg>
