<svg width="34" height="26" viewBox="0 0 34 26" fill="none" xmlns="http://www.w3.org/2000/svg">
<path d="M28.6668 14.6667C28.1946 14.6667 27.7991 14.5067 27.4802 14.1867C27.1602 13.8678 27.0002 13.4722 27.0002 13C27.0002 12.5278 27.1602 12.1317 27.4802 11.8117C27.7991 11.4928 28.1946 11.3333 28.6668 11.3333H32.0002C32.4724 11.3333 32.8679 11.4928 33.1868 11.8117C33.5068 12.1317 33.6668 12.5278 33.6668 13C33.6668 13.4722 33.5068 13.8678 33.1868 14.1867C32.8679 14.5067 32.4724 14.6667 32.0002 14.6667H28.6668ZM27.6668 25.3333L25.0002 23.3333C24.6113 23.0556 24.389 22.6945 24.3335 22.25C24.2779 21.8056 24.3891 21.3889 24.6668 21C24.9446 20.6111 25.3057 20.3889 25.7502 20.3333C26.1946 20.2778 26.6113 20.3889 27.0002 20.6667L29.6668 22.6667C30.0557 22.9445 30.2779 23.3056 30.3335 23.75C30.3891 24.1945 30.2779 24.6111 30.0002 25C29.7224 25.3889 29.3613 25.6111 28.9168 25.6667C28.4724 25.7222 28.0557 25.6111 27.6668 25.3333ZM27.0002 5.33335C26.6113 5.61112 26.1946 5.72224 25.7502 5.66668C25.3057 5.61112 24.9446 5.3889 24.6668 5.00001C24.3891 4.61112 24.2779 4.19446 24.3335 3.75001C24.389 3.30557 24.6113 2.94446 25.0002 2.66668L27.6668 0.66668C28.0557 0.388902 28.4724 0.277791 28.9168 0.333347C29.3613 0.388902 29.7224 0.611125 30.0002 1.00001C30.2779 1.3889 30.3891 1.80557 30.3335 2.25001C30.2779 2.69446 30.0557 3.05557 29.6668 3.33335L27.0002 5.33335ZM5.3335 24.6667V18H3.66683C2.75016 18 1.96572 17.6733 1.3135 17.02C0.660163 16.3678 0.333496 15.5833 0.333496 14.6667V11.3333C0.333496 10.4167 0.660163 9.63168 1.3135 8.97835C1.96572 8.32612 2.75016 8.00001 3.66683 8.00001H10.3335L16.1252 4.50001C16.6807 4.16668 17.2435 4.16668 17.8135 4.50001C18.3824 4.83335 18.6668 5.31946 18.6668 5.95835V20.0417C18.6668 20.6806 18.3824 21.1667 17.8135 21.5C17.2435 21.8333 16.6807 21.8333 16.1252 21.5L10.3335 18H8.66683V24.6667H5.3335ZM20.3335 18.5833V7.41668C21.0835 8.08335 21.6879 8.89612 22.1468 9.85501C22.6046 10.8128 22.8335 11.8611 22.8335 13C22.8335 14.1389 22.6046 15.1872 22.1468 16.145C21.6879 17.1039 21.0835 17.9167 20.3335 18.5833ZM15.3335 17.0833V8.91668L11.2502 11.3333H3.66683V14.6667H11.2502L15.3335 17.0833Z" fill="url(#paint0_linear_41_9711)"/>
<defs>
<linearGradient id="paint0_linear_41_9711" x1="0.000121229" y1="7.89637e-07" x2="34.0001" y2="32.5" gradientUnits="userSpaceOnUse">
<stop stop-color="#21BEF1"/>
<stop offset="1" stop-color="#73BF2D"/>
</linearGradient>
</defs>
</svg>
