<svg width="24" height="24" viewBox="0 0 24 24" fill="none" xmlns="http://www.w3.org/2000/svg">
<path d="M2.66667 24C1.93333 24 1.30533 23.7391 0.782667 23.2173C0.260889 22.6947 0 22.0667 0 21.3333V2.66667C0 1.93333 0.260889 1.30533 0.782667 0.782667C1.30533 0.260889 1.93333 0 2.66667 0H17.3333L24 6.66667V21.3333C24 22.0667 23.7391 22.6947 23.2173 23.2173C22.6947 23.7391 22.0667 24 21.3333 24H2.66667ZM2.66667 21.3333H21.3333V8H17.3333C16.9556 8 16.6391 7.872 16.384 7.616C16.128 7.36089 16 7.04444 16 6.66667V2.66667H2.66667V21.3333ZM6.66667 18.6667H17.3333C17.7111 18.6667 18.0276 18.5387 18.2827 18.2827C18.5387 18.0276 18.6667 17.7111 18.6667 17.3333C18.6667 16.9556 18.5387 16.6387 18.2827 16.3827C18.0276 16.1276 17.7111 16 17.3333 16H6.66667C6.28889 16 5.972 16.1276 5.716 16.3827C5.46089 16.6387 5.33333 16.9556 5.33333 17.3333C5.33333 17.7111 5.46089 18.0276 5.716 18.2827C5.972 18.5387 6.28889 18.6667 6.66667 18.6667ZM6.66667 8H10.6667C11.0444 8 11.3613 7.872 11.6173 7.616C11.8724 7.36089 12 7.04444 12 6.66667C12 6.28889 11.8724 5.972 11.6173 5.716C11.3613 5.46089 11.0444 5.33333 10.6667 5.33333H6.66667C6.28889 5.33333 5.972 5.46089 5.716 5.716C5.46089 5.972 5.33333 6.28889 5.33333 6.66667C5.33333 7.04444 5.46089 7.36089 5.716 7.616C5.972 7.872 6.28889 8 6.66667 8ZM6.66667 13.3333H17.3333C17.7111 13.3333 18.0276 13.2053 18.2827 12.9493C18.5387 12.6942 18.6667 12.3778 18.6667 12C18.6667 11.6222 18.5387 11.3053 18.2827 11.0493C18.0276 10.7942 17.7111 10.6667 17.3333 10.6667H6.66667C6.28889 10.6667 5.972 10.7942 5.716 11.0493C5.46089 11.3053 5.33333 11.6222 5.33333 12C5.33333 12.3778 5.46089 12.6942 5.716 12.9493C5.972 13.2053 6.28889 13.3333 6.66667 13.3333ZM2.66667 2.66667V8V2.66667V21.3333V2.66667Z" fill="white"/>
</svg>
