<svg width="28" height="34" viewBox="0 0 28 34" fill="none" xmlns="http://www.w3.org/2000/svg">
<path d="M9.00008 27H19.0001C19.4723 27 19.8684 26.84 20.1884 26.52C20.5073 26.2011 20.6667 25.8056 20.6667 25.3333C20.6667 24.8611 20.5073 24.4656 20.1884 24.1467C19.8684 23.8267 19.4723 23.6667 19.0001 23.6667H9.00008C8.52786 23.6667 8.1323 23.8267 7.81341 24.1467C7.49341 24.4656 7.33341 24.8611 7.33341 25.3333C7.33341 25.8056 7.49341 26.2011 7.81341 26.52C8.1323 26.84 8.52786 27 9.00008 27ZM9.00008 20.3333H19.0001C19.4723 20.3333 19.8684 20.1733 20.1884 19.8533C20.5073 19.5345 20.6667 19.1389 20.6667 18.6667C20.6667 18.1945 20.5073 17.7983 20.1884 17.4783C19.8684 17.1595 19.4723 17 19.0001 17H9.00008C8.52786 17 8.1323 17.1595 7.81341 17.4783C7.49341 17.7983 7.33341 18.1945 7.33341 18.6667C7.33341 19.1389 7.49341 19.5345 7.81341 19.8533C8.1323 20.1733 8.52786 20.3333 9.00008 20.3333ZM4.00008 33.6667C3.08341 33.6667 2.29897 33.3406 1.64675 32.6883C0.993414 32.035 0.666748 31.25 0.666748 30.3333V3.66668C0.666748 2.75001 0.993414 1.96501 1.64675 1.31168C2.29897 0.659454 3.08341 0.333344 4.00008 0.333344H15.9584C16.4029 0.333344 16.8267 0.416677 17.2301 0.583344C17.6323 0.75001 17.9862 0.986121 18.2917 1.29168L26.3751 9.37501C26.6806 9.68057 26.9167 10.0345 27.0834 10.4367C27.2501 10.84 27.3334 11.2639 27.3334 11.7083V30.3333C27.3334 31.25 27.0073 32.035 26.3551 32.6883C25.7017 33.3406 24.9167 33.6667 24.0001 33.6667H4.00008ZM15.6667 10.3333V3.66668H4.00008V30.3333H24.0001V12H17.3334C16.8612 12 16.4656 11.84 16.1467 11.52C15.8267 11.2011 15.6667 10.8056 15.6667 10.3333Z" fill="url(#paint0_linear_5_832)"/>
<defs>
<linearGradient id="paint0_linear_5_832" x1="1.00012" y1="3.11993e-05" x2="27.0001" y2="36" gradientUnits="userSpaceOnUse">
<stop stop-color="#21BEF1"/>
<stop offset="1" stop-color="#73BF2D"/>
</linearGradient>
</defs>
</svg>
