<svg width="24" height="28" viewBox="0 0 24 28" fill="none" xmlns="http://www.w3.org/2000/svg">
<path d="M1.33333 27.3336C0.955556 27.3336 0.639111 27.2056 0.384 26.9496C0.128 26.6945 0 26.378 0 26.0003V19.3336C0 18.6003 0.260889 17.9723 0.782667 17.4496C1.30533 16.9278 1.93333 16.6669 2.66667 16.6669V11.3336C2.66667 10.6003 2.928 9.97226 3.45067 9.44959C3.97244 8.92782 4.6 8.66693 5.33333 8.66693H10.6667V6.73359C10.2667 6.46693 9.94444 6.1447 9.7 5.76693C9.45555 5.38915 9.33333 4.93359 9.33333 4.40026C9.33333 4.06693 9.4 3.73893 9.53333 3.41626C9.66667 3.09448 9.86667 2.80026 10.1333 2.53359L11.5333 1.13359C11.5778 1.08915 11.7333 1.02248 12 0.933594C12.0444 0.933594 12.2 1.00026 12.4667 1.13359L13.8667 2.53359C14.1333 2.80026 14.3333 3.09448 14.4667 3.41626C14.6 3.73893 14.6667 4.06693 14.6667 4.40026C14.6667 4.93359 14.5444 5.38915 14.3 5.76693C14.0556 6.1447 13.7333 6.46693 13.3333 6.73359V8.66693H18.6667C19.4 8.66693 20.028 8.92782 20.5507 9.44959C21.0724 9.97226 21.3333 10.6003 21.3333 11.3336V16.6669C22.0667 16.6669 22.6947 16.9278 23.2173 17.4496C23.7391 17.9723 24 18.6003 24 19.3336V26.0003C24 26.378 23.872 26.6945 23.616 26.9496C23.3609 27.2056 23.0444 27.3336 22.6667 27.3336H1.33333ZM5.33333 16.6669H18.6667V11.3336H5.33333V16.6669ZM2.66667 24.6669H21.3333V19.3336H2.66667V24.6669ZM5.33333 16.6669H18.6667H5.33333ZM2.66667 24.6669H21.3333H2.66667ZM21.3333 16.6669H2.66667H21.3333Z" fill="#C8C8C8"/>
</svg>
