<svg width="24" height="27" viewBox="0 0 24 27" fill="none" xmlns="http://www.w3.org/2000/svg">
<path d="M6.66667 21.6667H13.3333C13.7111 21.6667 14.028 21.5387 14.284 21.2827C14.5391 21.0276 14.6667 20.7111 14.6667 20.3333C14.6667 19.9556 14.5391 19.6387 14.284 19.3827C14.028 19.1276 13.7111 19 13.3333 19H6.66667C6.28889 19 5.972 19.1276 5.716 19.3827C5.46089 19.6387 5.33333 19.9556 5.33333 20.3333C5.33333 20.7111 5.46089 21.0276 5.716 21.2827C5.972 21.5387 6.28889 21.6667 6.66667 21.6667ZM6.66667 16.3333H17.3333C17.7111 16.3333 18.0276 16.2053 18.2827 15.9493C18.5387 15.6942 18.6667 15.3778 18.6667 15C18.6667 14.6222 18.5387 14.3053 18.2827 14.0493C18.0276 13.7942 17.7111 13.6667 17.3333 13.6667H6.66667C6.28889 13.6667 5.972 13.7942 5.716 14.0493C5.46089 14.3053 5.33333 14.6222 5.33333 15C5.33333 15.3778 5.46089 15.6942 5.716 15.9493C5.972 16.2053 6.28889 16.3333 6.66667 16.3333ZM6.66667 11H17.3333C17.7111 11 18.0276 10.872 18.2827 10.616C18.5387 10.3609 18.6667 10.0445 18.6667 9.66668C18.6667 9.2889 18.5387 8.97201 18.2827 8.71601C18.0276 8.4609 17.7111 8.33334 17.3333 8.33334H6.66667C6.28889 8.33334 5.972 8.4609 5.716 8.71601C5.46089 8.97201 5.33333 9.2889 5.33333 9.66668C5.33333 10.0445 5.46089 10.3609 5.716 10.616C5.972 10.872 6.28889 11 6.66667 11ZM2.66667 24.3333H21.3333V5.66668H2.66667V24.3333ZM2.66667 5.66668V24.3333V5.66668ZM2.66667 27C1.93333 27 1.30533 26.7391 0.782667 26.2173C0.260889 25.6947 0 25.0667 0 24.3333V5.66668C0 4.93334 0.260889 4.30534 0.782667 3.78268C1.30533 3.2609 1.93333 3.00001 2.66667 3.00001H8.26667C8.55556 2.20001 9.03911 1.55557 9.71733 1.06668C10.3947 0.577788 11.1556 0.333344 12 0.333344C12.8444 0.333344 13.6058 0.577788 14.284 1.06668C14.9613 1.55557 15.4444 2.20001 15.7333 3.00001H21.3333C22.0667 3.00001 22.6947 3.2609 23.2173 3.78268C23.7391 4.30534 24 4.93334 24 5.66668V24.3333C24 25.0667 23.7391 25.6947 23.2173 26.2173C22.6947 26.7391 22.0667 27 21.3333 27H2.66667ZM12 4.66668C12.2889 4.66668 12.528 4.57201 12.7173 4.38268C12.9058 4.19423 13 3.95557 13 3.66668C13 3.37779 12.9058 3.13868 12.7173 2.94934C12.528 2.7609 12.2889 2.66668 12 2.66668C11.7111 2.66668 11.4724 2.7609 11.284 2.94934C11.0947 3.13868 11 3.37779 11 3.66668C11 3.95557 11.0947 4.19423 11.284 4.38268C11.4724 4.57201 11.7111 4.66668 12 4.66668Z" fill="white"/>
</svg>
