<svg width="38" height="37" viewBox="0 0 38 37" fill="none" xmlns="http://www.w3.org/2000/svg">
<path d="M33.625 14.375L31.3333 13.3333L33.625 12.2917L34.6667 10L35.7083 12.2917L38 13.3333L35.7083 14.375L34.6667 16.6667L33.625 14.375ZM28.0833 6.58333L24.6667 5L28.0833 3.41667L29.6667 0L31.25 3.41667L34.6667 5L31.25 6.58333L29.6667 10L28.0833 6.58333ZM13 36.6667C12.0833 36.6667 11.2989 36.3406 10.6467 35.6883C9.99333 35.035 9.66667 34.25 9.66667 33.3333H16.3333C16.3333 34.25 16.0072 35.035 15.355 35.6883C14.7017 36.3406 13.9167 36.6667 13 36.6667ZM8 31.6667C7.52778 31.6667 7.13167 31.5067 6.81167 31.1867C6.49278 30.8678 6.33333 30.4722 6.33333 30C6.33333 29.5278 6.49278 29.1322 6.81167 28.8133C7.13167 28.4933 7.52778 28.3333 8 28.3333H18C18.4722 28.3333 18.8683 28.4933 19.1883 28.8133C19.5072 29.1322 19.6667 29.5278 19.6667 30C19.6667 30.4722 19.5072 30.8678 19.1883 31.1867C18.8683 31.5067 18.4722 31.6667 18 31.6667H8ZM6.75 26.6667C4.83333 25.5278 3.31278 24 2.18833 22.0833C1.06278 20.1667 0.5 18.0833 0.5 15.8333C0.5 12.3611 1.71556 9.41 4.14667 6.98C6.57667 4.54889 9.52778 3.33333 13 3.33333C16.4722 3.33333 19.4233 4.54889 21.8533 6.98C24.2844 9.41 25.5 12.3611 25.5 15.8333C25.5 18.0833 24.9378 20.1667 23.8133 22.0833C22.6878 24 21.1667 25.5278 19.25 26.6667H6.75ZM7.75 23.3333H18.25C19.5 22.4444 20.465 21.3472 21.145 20.0417C21.8261 18.7361 22.1667 17.3333 22.1667 15.8333C22.1667 13.2778 21.2778 11.1111 19.5 9.33333C17.7222 7.55556 15.5556 6.66667 13 6.66667C10.4444 6.66667 8.27778 7.55556 6.5 9.33333C4.72222 11.1111 3.83333 13.2778 3.83333 15.8333C3.83333 17.3333 4.17389 18.7361 4.855 20.0417C5.535 21.3472 6.5 22.4444 7.75 23.3333Z" fill="url(#paint0_linear_5_686)"/>
<defs>
<linearGradient id="paint0_linear_5_686" x1="-3" y1="1" x2="38" y2="38" gradientUnits="userSpaceOnUse">
<stop stop-color="#21BEF1"/>
<stop offset="1" stop-color="#73BF2D"/>
</linearGradient>
</defs>
</svg>
