<svg width="32" height="32" viewBox="0 0 32 32" fill="none" xmlns="http://www.w3.org/2000/svg">
<rect x="14.6667" y="2.66663" width="2.66667" height="5.33333" rx="1.33333" fill="#C8C8C8"/>
<rect x="9.51172" y="5.02393" width="2.66667" height="5.33333" rx="1.33333" transform="rotate(-30 9.51172 5.02393)" fill="#C8C8C8"/>
<rect x="20.1785" y="3.69055" width="2.66667" height="5.33333" rx="1.33333" transform="rotate(30 20.1785 3.69055)" fill="#C8C8C8"/>
<rect x="9.2998" y="19.8112" width="2.66667" height="6.66667" transform="rotate(8 9.2998 19.8112)" fill="#C8C8C8"/>
<path d="M8.80984 11.327L14.7514 12.162L13.4989 21.0744C13.422 21.6213 12.9164 22.0024 12.3694 21.9255L8.40837 21.3688C7.86146 21.2919 7.48041 20.7863 7.55728 20.2394L8.80984 11.327Z" stroke="#C8C8C8" stroke-width="2"/>
<path d="M8.53687 15.6644L13.3264 19.9065L13.0805 21.6564L7.79907 20.9141L8.53687 15.6644Z" fill="#C8C8C8"/>
<rect x="13.0864" y="26.4022" width="2.66667" height="6.66667" rx="1.33333" transform="rotate(98 13.0864 26.4022)" fill="#C8C8C8"/>
<rect x="21.3933" y="20.1825" width="2.66667" height="6.66667" transform="rotate(-8 21.3933 20.1825)" fill="#C8C8C8"/>
<path d="M18.5826 12.1621L24.5242 11.3271L25.7767 20.2395C25.8536 20.7864 25.4725 21.2921 24.9256 21.3689L20.9646 21.9256C20.4177 22.0025 19.912 21.6215 19.8351 21.0745L18.5826 12.1621Z" stroke="#C8C8C8" stroke-width="2"/>
<path d="M24.7969 15.6647L20.0131 19.948L20.2619 21.7185L25.5434 20.9762L24.7969 15.6647Z" fill="#C8C8C8"/>
<rect x="26.8489" y="25.4746" width="2.66667" height="6.66667" rx="1.33333" transform="rotate(82 26.8489 25.4746)" fill="#C8C8C8"/>
</svg>
