<svg width="22" height="28" viewBox="0 0 22 28" fill="none" xmlns="http://www.w3.org/2000/svg">
<path d="M10.9999 27.1333C10.7555 27.1333 10.5279 27.1164 10.3173 27.0827C10.1057 27.0498 9.91103 27 9.73325 26.9333C6.9777 25.9111 4.72214 24.0889 2.96659 21.4667C1.21103 18.8444 0.333252 15.9556 0.333252 12.8V6.5C0.333252 5.94445 0.494585 5.44445 0.817252 5C1.13903 4.55556 1.55547 4.23334 2.06659 4.03334L10.0666 1.03334C10.3777 0.922224 10.6888 0.866669 10.9999 0.866669C11.311 0.866669 11.6221 0.922224 11.9333 1.03334L19.9333 4.03334C20.4444 4.23334 20.8613 4.55556 21.1839 5C21.5057 5.44445 21.6666 5.94445 21.6666 6.5V12.8C21.6666 15.9556 20.7888 18.8444 19.0333 21.4667C17.2777 24.0889 15.0221 25.9111 12.2666 26.9333C12.0888 27 11.8941 27.0498 11.6826 27.0827C11.4719 27.1164 11.2444 27.1333 10.9999 27.1333ZM10.9999 24.5333C13.1555 23.8667 14.9555 22.5502 16.3999 20.584C17.8444 18.6169 18.6888 16.4222 18.9333 14H10.9999V3.5L2.99992 6.5V13.4C2.99992 13.5556 3.02214 13.7556 3.06659 14H10.9999V24.5333Z" fill="white"/>
</svg>
