<svg width="29" height="24" viewBox="0 0 29 24" fill="none" xmlns="http://www.w3.org/2000/svg">
<path d="M13.9999 23.6333C13.7777 23.6333 13.5608 23.6058 13.3493 23.5506C13.1386 23.4946 12.9333 23.4111 12.7333 23.3L6.0666 19.7C5.62216 19.4555 5.27771 19.128 5.03327 18.7173C4.78882 18.3058 4.6666 17.8444 4.6666 17.3333V10.9333L1.4666 9.16664C1.22216 9.0333 1.04438 8.86664 0.933268 8.66664C0.822157 8.46664 0.766602 8.24442 0.766602 7.99997C0.766602 7.75553 0.822157 7.5333 0.933268 7.3333C1.04438 7.1333 1.22216 6.96664 1.4666 6.8333L12.7333 0.699972C12.9333 0.58886 13.1386 0.505305 13.3493 0.449305C13.5608 0.394193 13.7777 0.366638 13.9999 0.366638C14.2222 0.366638 14.439 0.394193 14.6506 0.449305C14.8613 0.505305 15.0666 0.58886 15.2666 0.699972L27.9666 7.63331C28.1888 7.74442 28.3613 7.9053 28.4839 8.11597C28.6057 8.32753 28.6666 8.55553 28.6666 8.79997V17.3333C28.6666 17.7111 28.5386 18.0275 28.2826 18.2826C28.0275 18.5386 27.711 18.6666 27.3333 18.6666C26.9555 18.6666 26.639 18.5386 26.3839 18.2826C26.1279 18.0275 25.9999 17.7111 25.9999 17.3333V9.46664L23.3333 10.9333V17.3333C23.3333 17.8444 23.211 18.3058 22.9666 18.7173C22.7222 19.128 22.3777 19.4555 21.9333 19.7L15.2666 23.3C15.0666 23.4111 14.8613 23.4946 14.6506 23.5506C14.439 23.6058 14.2222 23.6333 13.9999 23.6333V23.6333ZM13.9999 12.9333L23.1333 7.99997L13.9999 3.06664L4.8666 7.99997L13.9999 12.9333ZM13.9999 20.9666L20.6666 17.3666V12.3333L15.2999 15.3C15.0999 15.4111 14.8888 15.4942 14.6666 15.5493C14.4444 15.6053 14.2222 15.6333 13.9999 15.6333C13.7777 15.6333 13.5555 15.6053 13.3333 15.5493C13.111 15.4942 12.8999 15.4111 12.6999 15.3L7.33327 12.3333V17.3666L13.9999 20.9666Z" fill="white"/>
</svg>
