<svg width="24" height="28" viewBox="0 0 24 28" fill="none" xmlns="http://www.w3.org/2000/svg">
<path d="M0 27.0667V0.93335C0.0444444 0.93335 0.105778 0.938683 0.184 0.949349C0.261333 0.960905 0.355555 1.02224 0.466667 1.13335L1.53333 2.20002C1.66667 2.33335 1.82222 2.40002 2 2.40002C2.17778 2.40002 2.33333 2.33335 2.46667 2.20002L3.53333 1.13335C3.66667 1.00002 3.82222 0.93335 4 0.93335C4.17778 0.93335 4.33333 1.00002 4.46667 1.13335L5.53333 2.20002C5.66667 2.33335 5.82222 2.40002 6 2.40002C6.17778 2.40002 6.33333 2.33335 6.46667 2.20002L7.53333 1.13335C7.66667 1.00002 7.82222 0.93335 8 0.93335C8.17778 0.93335 8.33333 1.00002 8.46667 1.13335L9.53333 2.20002C9.66667 2.33335 9.82222 2.40002 10 2.40002C10.1778 2.40002 10.3333 2.33335 10.4667 2.20002L11.5333 1.13335C11.6667 1.00002 11.8222 0.93335 12 0.93335C12.1778 0.93335 12.3333 1.00002 12.4667 1.13335L13.5333 2.20002C13.6667 2.33335 13.8222 2.40002 14 2.40002C14.1778 2.40002 14.3333 2.33335 14.4667 2.20002L15.5333 1.13335C15.6667 1.00002 15.8222 0.93335 16 0.93335C16.1778 0.93335 16.3333 1.00002 16.4667 1.13335L17.5333 2.20002C17.6667 2.33335 17.8222 2.40002 18 2.40002C18.1778 2.40002 18.3333 2.33335 18.4667 2.20002L19.5333 1.13335C19.6667 1.00002 19.8222 0.93335 20 0.93335C20.1778 0.93335 20.3333 1.00002 20.4667 1.13335L21.5333 2.20002C21.6667 2.33335 21.8222 2.40002 22 2.40002C22.1778 2.40002 22.3333 2.33335 22.4667 2.20002L23.5333 1.13335C23.6444 1.02224 23.7391 0.960905 23.8173 0.949349C23.8947 0.938683 23.9556 0.93335 24 0.93335V27.0667C23.9556 27.0667 23.8947 27.0613 23.8173 27.0507C23.7391 27.0391 23.6444 26.9778 23.5333 26.8667L22.4667 25.8C22.3333 25.6667 22.1778 25.6 22 25.6C21.8222 25.6 21.6667 25.6667 21.5333 25.8L20.4667 26.8667C20.3333 27 20.1778 27.0667 20 27.0667C19.8222 27.0667 19.6667 27 19.5333 26.8667L18.4667 25.8C18.3333 25.6667 18.1778 25.6 18 25.6C17.8222 25.6 17.6667 25.6667 17.5333 25.8L16.4667 26.8667C16.3333 27 16.1778 27.0667 16 27.0667C15.8222 27.0667 15.6667 27 15.5333 26.8667L14.4667 25.8C14.3333 25.6667 14.1778 25.6 14 25.6C13.8222 25.6 13.6667 25.6667 13.5333 25.8L12.4667 26.8667C12.3333 27 12.1778 27.0667 12 27.0667C11.8222 27.0667 11.6667 27 11.5333 26.8667L10.4667 25.8C10.3333 25.6667 10.1778 25.6 10 25.6C9.82222 25.6 9.66667 25.6667 9.53333 25.8L8.46667 26.8667C8.33333 27 8.17778 27.0667 8 27.0667C7.82222 27.0667 7.66667 27 7.53333 26.8667L6.46667 25.8C6.33333 25.6667 6.17778 25.6 6 25.6C5.82222 25.6 5.66667 25.6667 5.53333 25.8L4.46667 26.8667C4.33333 27 4.17778 27.0667 4 27.0667C3.82222 27.0667 3.66667 27 3.53333 26.8667L2.46667 25.8C2.33333 25.6667 2.17778 25.6 2 25.6C1.82222 25.6 1.66667 25.6667 1.53333 25.8L0.466667 26.8667C0.355555 26.9778 0.261333 27.0391 0.184 27.0507C0.105778 27.0613 0.0444444 27.0667 0 27.0667ZM5.33333 20.6667H18.6667C19.0444 20.6667 19.3609 20.5387 19.616 20.2827C19.872 20.0276 20 19.7111 20 19.3334C20 18.9556 19.872 18.6387 19.616 18.3827C19.3609 18.1276 19.0444 18 18.6667 18H5.33333C4.95556 18 4.63867 18.1276 4.38267 18.3827C4.12756 18.6387 4 18.9556 4 19.3334C4 19.7111 4.12756 20.0276 4.38267 20.2827C4.63867 20.5387 4.95556 20.6667 5.33333 20.6667ZM5.33333 15.3334H18.6667C19.0444 15.3334 19.3609 15.2053 19.616 14.9494C19.872 14.6942 20 14.3778 20 14C20 13.6222 19.872 13.3054 19.616 13.0493C19.3609 12.7942 19.0444 12.6667 18.6667 12.6667H5.33333C4.95556 12.6667 4.63867 12.7942 4.38267 13.0493C4.12756 13.3054 4 13.6222 4 14C4 14.3778 4.12756 14.6942 4.38267 14.9494C4.63867 15.2053 4.95556 15.3334 5.33333 15.3334ZM5.33333 10H18.6667C19.0444 10 19.3609 9.87202 19.616 9.61602C19.872 9.36091 20 9.04446 20 8.66668C20 8.28891 19.872 7.97202 19.616 7.71602C19.3609 7.46091 19.0444 7.33335 18.6667 7.33335H5.33333C4.95556 7.33335 4.63867 7.46091 4.38267 7.71602C4.12756 7.97202 4 8.28891 4 8.66668C4 9.04446 4.12756 9.36091 4.38267 9.61602C4.63867 9.87202 4.95556 10 5.33333 10ZM2.66667 23.4667H21.3333V4.53335H2.66667V23.4667ZM2.66667 4.53335V23.4667V4.53335Z" fill="white"/>
</svg>
