<svg width="30" height="30" viewBox="0 0 30 30" fill="none" xmlns="http://www.w3.org/2000/svg">
<path d="M3.33333 30C2.41667 30 1.63167 29.6739 0.978333 29.0217C0.326111 28.3683 0 27.5833 0 26.6667V3.33333C0 2.41667 0.326111 1.63167 0.978333 0.978333C1.63167 0.326111 2.41667 0 3.33333 0H13.3333C13.8056 0 14.2017 0.159444 14.5217 0.478333C14.8406 0.798333 15 1.19444 15 1.66667C15 2.13889 14.8406 2.53444 14.5217 2.85333C14.2017 3.17333 13.8056 3.33333 13.3333 3.33333H3.33333V26.6667H26.6667V16.6667C26.6667 16.1944 26.8267 15.7983 27.1467 15.4783C27.4656 15.1594 27.8611 15 28.3333 15C28.8056 15 29.2011 15.1594 29.52 15.4783C29.84 15.7983 30 16.1944 30 16.6667V26.6667C30 27.5833 29.6739 28.3683 29.0217 29.0217C28.3683 29.6739 27.5833 30 26.6667 30H3.33333ZM10 20C9.69444 19.6944 9.54167 19.3056 9.54167 18.8333C9.54167 18.3611 9.69444 17.9722 10 17.6667L24.3333 3.33333H20C19.5278 3.33333 19.1322 3.17333 18.8133 2.85333C18.4933 2.53444 18.3333 2.13889 18.3333 1.66667C18.3333 1.19444 18.4933 0.798333 18.8133 0.478333C19.1322 0.159444 19.5278 0 20 0H28.3333C28.8056 0 29.2011 0.159444 29.52 0.478333C29.84 0.798333 30 1.19444 30 1.66667V10C30 10.4722 29.84 10.8678 29.52 11.1867C29.2011 11.5067 28.8056 11.6667 28.3333 11.6667C27.8611 11.6667 27.4656 11.5067 27.1467 11.1867C26.8267 10.8678 26.6667 10.4722 26.6667 10V5.66667L12.2917 20.0417C11.9861 20.3472 11.6111 20.5 11.1667 20.5C10.7222 20.5 10.3333 20.3333 10 20Z" fill="url(#paint0_linear_5_712)"/>
<defs>
<linearGradient id="paint0_linear_5_712" x1="0" y1="0" x2="30" y2="30" gradientUnits="userSpaceOnUse">
<stop stop-color="#21BEF1"/>
<stop offset="1" stop-color="#73BF2D"/>
</linearGradient>
</defs>
</svg>
