<svg width="30" height="30" viewBox="0 0 30 30" fill="none" xmlns="http://www.w3.org/2000/svg">
<path d="M8.33333 23.3333H16.6667C17.1389 23.3333 17.535 23.1733 17.855 22.8533C18.1739 22.5344 18.3333 22.1389 18.3333 21.6667C18.3333 21.1944 18.1739 20.7983 17.855 20.4783C17.535 20.1594 17.1389 20 16.6667 20H8.33333C7.86111 20 7.465 20.1594 7.145 20.4783C6.82611 20.7983 6.66667 21.1944 6.66667 21.6667C6.66667 22.1389 6.82611 22.5344 7.145 22.8533C7.465 23.1733 7.86111 23.3333 8.33333 23.3333ZM8.33333 16.6667H21.6667C22.1389 16.6667 22.5344 16.5067 22.8533 16.1867C23.1733 15.8678 23.3333 15.4722 23.3333 15C23.3333 14.5278 23.1733 14.1317 22.8533 13.8117C22.5344 13.4928 22.1389 13.3333 21.6667 13.3333H8.33333C7.86111 13.3333 7.465 13.4928 7.145 13.8117C6.82611 14.1317 6.66667 14.5278 6.66667 15C6.66667 15.4722 6.82611 15.8678 7.145 16.1867C7.465 16.5067 7.86111 16.6667 8.33333 16.6667ZM8.33333 10H21.6667C22.1389 10 22.5344 9.84 22.8533 9.52C23.1733 9.20111 23.3333 8.80556 23.3333 8.33333C23.3333 7.86111 23.1733 7.465 22.8533 7.145C22.5344 6.82611 22.1389 6.66667 21.6667 6.66667H8.33333C7.86111 6.66667 7.465 6.82611 7.145 7.145C6.82611 7.465 6.66667 7.86111 6.66667 8.33333C6.66667 8.80556 6.82611 9.20111 7.145 9.52C7.465 9.84 7.86111 10 8.33333 10ZM3.33333 30C2.41667 30 1.63167 29.6739 0.978333 29.0217C0.326111 28.3683 0 27.5833 0 26.6667V3.33333C0 2.41667 0.326111 1.63167 0.978333 0.978333C1.63167 0.326111 2.41667 0 3.33333 0H26.6667C27.5833 0 28.3683 0.326111 29.0217 0.978333C29.6739 1.63167 30 2.41667 30 3.33333V26.6667C30 27.5833 29.6739 28.3683 29.0217 29.0217C28.3683 29.6739 27.5833 30 26.6667 30H3.33333ZM3.33333 26.6667H26.6667V3.33333H3.33333V26.6667Z" fill="url(#paint0_linear_25_5752)"/>
<defs>
<linearGradient id="paint0_linear_25_5752" x1="0" y1="0" x2="30" y2="33" gradientUnits="userSpaceOnUse">
<stop stop-color="#21BEF1"/>
<stop offset="1" stop-color="#73BF2D"/>
</linearGradient>
</defs>
</svg>
