<svg width="32" height="32" viewBox="0 0 32 32" fill="none" xmlns="http://www.w3.org/2000/svg">
<path d="M26.814 19.9722L26.4567 18.7744L25.8137 18.9662L25.6182 19.6081L26.814 19.9722ZM5.1268 19.9719L6.3226 19.6078L6.1272 18.966L5.48436 18.7741L5.1268 19.9719ZM5.12676 13.3607L5.48433 14.5584L6.12718 14.3665L6.32257 13.7247L5.12676 13.3607ZM26.8142 13.3607L25.6184 13.7248L25.8138 14.3667L26.4567 14.5585L26.8142 13.3607ZM15.9705 29.2496C21.645 29.2496 26.4392 25.4944 28.0098 20.3363L25.6182 19.6081C24.3591 23.7431 20.5143 26.7496 15.9705 26.7496V29.2496ZM3.93099 20.336C5.50146 25.4942 10.2958 29.2496 15.9705 29.2496V26.7496C11.4266 26.7496 7.5816 23.743 6.3226 19.6078L3.93099 20.336ZM1.41577 16.6663C1.41577 18.7955 2.83092 20.591 4.76923 21.1697L5.48436 18.7741C4.5759 18.5029 3.91577 17.6601 3.91577 16.6663H1.41577ZM4.76918 12.1629C2.8309 12.7416 1.41577 14.537 1.41577 16.6663H3.91577C3.91577 15.6725 4.57589 14.8296 5.48433 14.5584L4.76918 12.1629ZM15.9705 4.08289C10.2957 4.08289 5.50138 7.83833 3.93095 12.9966L6.32257 13.7247C7.58153 9.58949 11.4265 6.58289 15.9705 6.58289V4.08289ZM28.01 12.9966C26.4396 7.83835 21.6452 4.08289 15.9705 4.08289V6.58289C20.5144 6.58289 24.3594 9.58951 25.6184 13.7248L28.01 12.9966ZM26.4567 14.5585C27.3653 14.8296 28.0256 15.6726 28.0256 16.6664H30.5256C30.5256 14.537 29.1102 12.7414 27.1716 12.1629L26.4567 14.5585ZM28.0256 16.6664C28.0256 17.6604 27.3653 18.5033 26.4567 18.7744L27.1714 21.17C29.1101 20.5916 30.5256 18.796 30.5256 16.6664H28.0256Z" fill="#C8C8C8"/>
<path d="M9.56494 14.6952C9.56494 14.6952 9.93451 15.1879 11.0432 15.1879C12.1519 15.1879 12.5215 14.6952 12.5215 14.6952" stroke="#C8C8C8" stroke-width="2.5" stroke-linecap="round"/>
<path d="M19.4189 14.6952C19.4189 14.6952 19.7885 15.1879 20.8972 15.1879C22.0059 15.1879 22.3755 14.6952 22.3755 14.6952" stroke="#C8C8C8" stroke-width="2.5" stroke-linecap="round"/>
<path d="M20.406 21.1017C20.406 21.1017 19.2973 22.0872 15.9712 22.0872C12.6451 22.0872 11.5364 21.1017 11.5364 21.1017" stroke="#C8C8C8" stroke-width="2.5" stroke-linecap="round"/>
<path d="M16.1953 5.33325C16.1953 5.33325 19.4206 7.02183 19.4206 8.71042C19.4206 10.399 18.5337 11.1378 16.7329 11.2433C14.9565 11.3474 13.5076 8.71042 13.5076 8.71042" stroke="#C8C8C8" stroke-width="2.5" stroke-linecap="round"/>
</svg>
