<svg width="32" height="32" viewBox="0 0 32 32" fill="none" xmlns="http://www.w3.org/2000/svg">
<g clip-path="url(#clip0_71_16843)">
<path fill-rule="evenodd" clip-rule="evenodd" d="M9.38733 2C9.87698 2 10.3556 2.14739 10.7628 2.42352C11.1699 2.69965 11.4872 3.09213 11.6746 3.55132C11.862 4.01052 11.911 4.5158 11.8155 5.00328C11.72 5.49075 11.4842 5.93853 11.1379 6.28998C10.7917 6.64144 10.3506 6.88078 9.87033 6.97774C9.39008 7.07471 8.89226 7.02494 8.43988 6.83474C7.98749 6.64453 7.60085 6.32243 7.32881 5.90917C7.05677 5.4959 6.91157 5.01004 6.91157 4.51301C6.91157 3.84652 7.17241 3.20732 7.63671 2.73604C8.101 2.26476 8.73071 2 9.38733 2ZM19.9935 14.8616C17.5573 19.4855 17.0473 23.8079 16.8096 28.9898H26.1532C26.1532 28.5676 26.1135 28.4218 26.0937 27.9846C25.861 23.1244 25.5095 18.6965 22.9941 14.8817C22.6178 14.3138 23.7665 12.6351 24.0438 12.1727H24.0191C23.9406 11.8916 23.7796 11.6415 23.5576 11.4556C23.3355 11.2698 23.063 11.157 22.7762 11.1323C22.7479 11.4604 22.5995 11.7658 22.3602 11.9883C22.121 12.2108 21.8083 12.3342 21.4839 12.3342C21.1594 12.3342 20.8467 12.2108 20.6075 11.9883C20.3683 11.7658 20.2199 11.4604 20.1915 11.1323C19.9156 11.1541 19.6522 11.2583 19.4345 11.4318C19.2169 11.6053 19.0547 11.8404 18.9685 12.1073C19.221 12.5295 20.3104 14.2635 19.9935 14.8717V14.8616ZM19.0032 14.1278L18.4635 13.1879C17.8099 14.8113 16.7354 17.842 16.5522 18.3346C16.5064 18.4794 16.4244 18.6098 16.3142 18.7128C16.2039 18.8159 16.0693 18.8882 15.9233 18.9226C15.84 18.949 15.7532 18.9625 15.6658 18.9628C15.4202 18.9602 15.1855 18.8596 15.0122 18.6829C14.839 18.5061 14.7412 18.2673 14.7399 18.0179C14.5815 17.2289 13.1257 10.7503 12.69 10.7503C12.2542 10.7503 12.3137 15.138 12.2295 15.7412V28.5626C12.2269 28.8972 12.0944 29.2173 11.8608 29.4534C11.6273 29.6896 11.3114 29.8228 10.9817 29.8241C10.652 29.8228 10.3362 29.6896 10.1026 29.4534C9.869 29.2173 9.73654 28.8972 9.73394 28.5626V19.8876H9.03576V28.5626C9.03188 28.8968 8.89903 29.2161 8.66572 29.452C8.43242 29.6879 8.11728 29.8215 7.788 29.8241C7.45832 29.8228 7.14243 29.6896 6.90885 29.4534C6.67526 29.2173 6.54281 28.8972 6.5402 28.5626V15.7412C6.45603 15.138 6.54021 10.7503 6.07972 10.7503C5.51029 10.7503 5.85689 17.2088 5.85689 18.0179C5.85183 18.2669 5.75213 18.5043 5.57864 18.6804C5.40515 18.8565 5.1713 18.9577 4.926 18.9628C4.67992 18.9602 4.44464 18.8598 4.27062 18.6832C4.0966 18.5066 3.99769 18.2677 3.99512 18.0179V9.68982C3.99512 8.39311 5.48057 7.65428 6.00543 7.65428H7.27798L9.38237 14.8817L11.4917 7.65428H12.9029C13.398 7.65428 14.7696 8.39813 14.7696 9.68982C14.7696 10.5091 15.5024 12.8009 16.0422 14.8968C16.6562 13.1528 17.2107 11.5193 17.9386 9.5893C17.9967 9.43861 18.0918 9.30548 18.2149 9.20257C18.3379 9.09965 18.4849 9.03036 18.6417 9.00125C19.5482 8.90943 20.4598 8.88256 21.37 8.92084C22.3527 8.88387 23.3368 8.91072 24.3161 9.00125C24.4731 9.0299 24.6203 9.09903 24.7434 9.20201C24.8665 9.30498 24.9615 9.43835 25.0193 9.5893C26.1136 12.4893 26.8167 14.7209 27.9258 17.6611C28.0234 17.881 28.033 18.1307 27.9526 18.3577C27.8723 18.5846 27.7082 18.7709 27.495 18.8774C27.3888 18.9197 27.2749 18.9391 27.1609 18.9344C27.0468 18.9296 26.935 18.9008 26.8325 18.8497C26.73 18.7986 26.6391 18.7265 26.5656 18.6378C26.4922 18.5491 26.4377 18.4458 26.4057 18.3346C26.2274 17.8621 25.1827 14.937 24.5291 13.3086L23.8606 14.4696C23.8606 14.4696 23.8606 14.5048 23.8606 14.5098C26.9751 18.601 27.1088 24.6774 27.1583 29.5879C27.1607 29.6029 27.1607 29.6181 27.1583 29.6331C27.1583 29.7291 27.1207 29.8211 27.0539 29.889C26.987 29.9568 26.8964 29.995 26.8018 29.995H16.1412C16.0471 29.9898 15.9587 29.9474 15.8948 29.877C15.831 29.8066 15.7968 29.7137 15.7995 29.618C15.9679 25.5972 16.2452 22.6117 16.7898 20.2344C17.2874 18.2279 18.0608 16.3024 19.0873 14.5148C19.0712 14.3822 19.0448 14.2511 19.0081 14.1228L19.0032 14.1278ZM21.4789 3.36708C21.9686 3.36708 22.4472 3.51447 22.8544 3.7906C23.2615 4.06673 23.5788 4.45921 23.7662 4.9184C23.9536 5.3776 24.0026 5.88288 23.9071 6.37036C23.8116 6.85783 23.5758 7.30561 23.2295 7.65706C22.8833 8.00852 22.4422 8.24786 21.9619 8.34482C21.4817 8.44179 20.9839 8.39202 20.5315 8.20182C20.0791 8.01161 19.6924 7.68951 19.4204 7.27625C19.1484 6.86298 19.0032 6.37712 19.0032 5.88009C19.0032 5.2136 19.264 4.5744 19.7283 4.10312C20.1926 3.63184 20.8223 3.36708 21.4789 3.36708ZM10.5856 9.0867L10.8678 7.43313L9.38237 8.13175L7.89691 7.43313L8.17915 9.0867L9.38733 8.38305L10.6005 9.0867H10.5856Z" fill="#C8C8C8"/>
</g>
<defs>
<clipPath id="clip0_71_16843">
<rect width="24" height="28" fill="white" transform="translate(4 2)"/>
</clipPath>
</defs>
</svg>
