<svg width="32" height="32" viewBox="0 0 32 32" fill="none" xmlns="http://www.w3.org/2000/svg">
<path d="M25.3792 6.62077C22.0949 3.33637 16.9988 3.10837 13.9963 6.11008C12.2522 7.8542 12.2064 9.50265 13.1734 11.2781C13.1734 11.2781 14.442 10.0219 14.5149 9.96774C14.2658 9.16408 14.4564 8.35323 15.3549 7.45391C17.6746 5.13414 21.612 5.31105 24.1503 7.8482C26.6886 10.3853 26.8652 14.3241 24.5446 16.6442C23.6454 17.5432 22.8346 17.7338 22.0309 17.4842C21.9766 17.5569 20.7202 18.8255 20.7202 18.8255C22.4964 19.7928 24.1448 19.7469 25.8887 18.0026C28.8916 15.0016 28.6635 9.90534 25.3792 6.62077Z" fill="#C8C8C8"/>
<path d="M12.0979 15.8699C11.6865 16.2813 11.0741 16.8439 10.3396 17.3613C8.78387 18.4567 7.10114 18.4122 5.23875 20.2742C4.06208 21.4511 3.06163 24.0628 5.50018 26.5003C7.93873 28.9379 10.5496 27.9383 11.7262 26.7618C13.5888 24.8994 13.5434 23.2171 14.6391 21.6611C15.1562 20.9265 15.7191 20.3136 16.1306 19.9026C14.8457 18.5018 13.5014 17.1575 12.0979 15.8699Z" fill="#C8C8C8"/>
<path d="M19.4363 19.0513L21.3246 17.1632C21.3249 17.1625 21.3254 17.1618 21.3259 17.1613C21.5395 16.9457 21.6591 16.6544 21.6589 16.351C21.6586 16.0476 21.5385 15.7565 21.3246 15.5413L16.4591 10.6755C16.2439 10.4615 15.9528 10.3413 15.6494 10.341C15.3459 10.3407 15.0546 10.4604 14.839 10.6739L14.8369 10.6753L12.9488 12.5637C11.2517 11.0867 9.3466 9.55689 7.50358 8.25557C7.30078 8.11113 7.05812 8.03325 6.80913 8.03271C6.44279 8.03271 6.08914 8.20414 5.87417 8.52214C5.51983 9.0474 5.6604 9.76174 6.18017 10.1293C8.40598 11.7008 10.5613 13.4469 12.6097 15.3282C14.0192 16.6226 15.3731 17.9765 16.6715 19.39C18.5528 21.4386 20.2991 23.5948 21.8706 25.8198C21.9797 25.9746 22.1244 26.101 22.2924 26.1883C22.4605 26.2756 22.647 26.3214 22.8364 26.3217C23.065 26.3221 23.2885 26.2539 23.4779 26.1258C24.003 25.7715 24.1274 25.0386 23.7443 24.4972C22.443 22.6537 20.9137 20.7474 19.4363 19.0513Z" fill="#C8C8C8"/>
</svg>
