<svg width="30" height="34" viewBox="0 0 30 34" fill="none" xmlns="http://www.w3.org/2000/svg">
<path d="M15 20.3333C14.5278 20.3333 14.1322 20.1733 13.8133 19.8533C13.4933 19.5344 13.3333 19.1389 13.3333 18.6666C13.3333 18.1944 13.4933 17.7983 13.8133 17.4783C14.1322 17.1594 14.5278 17 15 17C15.4722 17 15.8683 17.1594 16.1883 17.4783C16.5072 17.7983 16.6667 18.1944 16.6667 18.6666C16.6667 19.1389 16.5072 19.5344 16.1883 19.8533C15.8683 20.1733 15.4722 20.3333 15 20.3333ZM8.33333 20.3333C7.86111 20.3333 7.465 20.1733 7.145 19.8533C6.82611 19.5344 6.66667 19.1389 6.66667 18.6666C6.66667 18.1944 6.82611 17.7983 7.145 17.4783C7.465 17.1594 7.86111 17 8.33333 17C8.80556 17 9.20167 17.1594 9.52167 17.4783C9.84056 17.7983 10 18.1944 10 18.6666C10 19.1389 9.84056 19.5344 9.52167 19.8533C9.20167 20.1733 8.80556 20.3333 8.33333 20.3333ZM21.6667 20.3333C21.1944 20.3333 20.7989 20.1733 20.48 19.8533C20.16 19.5344 20 19.1389 20 18.6666C20 18.1944 20.16 17.7983 20.48 17.4783C20.7989 17.1594 21.1944 17 21.6667 17C22.1389 17 22.5344 17.1594 22.8533 17.4783C23.1733 17.7983 23.3333 18.1944 23.3333 18.6666C23.3333 19.1389 23.1733 19.5344 22.8533 19.8533C22.5344 20.1733 22.1389 20.3333 21.6667 20.3333ZM15 27C14.5278 27 14.1322 26.84 13.8133 26.52C13.4933 26.2011 13.3333 25.8055 13.3333 25.3333C13.3333 24.8611 13.4933 24.4655 13.8133 24.1466C14.1322 23.8266 14.5278 23.6666 15 23.6666C15.4722 23.6666 15.8683 23.8266 16.1883 24.1466C16.5072 24.4655 16.6667 24.8611 16.6667 25.3333C16.6667 25.8055 16.5072 26.2011 16.1883 26.52C15.8683 26.84 15.4722 27 15 27ZM8.33333 27C7.86111 27 7.465 26.84 7.145 26.52C6.82611 26.2011 6.66667 25.8055 6.66667 25.3333C6.66667 24.8611 6.82611 24.4655 7.145 24.1466C7.465 23.8266 7.86111 23.6666 8.33333 23.6666C8.80556 23.6666 9.20167 23.8266 9.52167 24.1466C9.84056 24.4655 10 24.8611 10 25.3333C10 25.8055 9.84056 26.2011 9.52167 26.52C9.20167 26.84 8.80556 27 8.33333 27ZM21.6667 27C21.1944 27 20.7989 26.84 20.48 26.52C20.16 26.2011 20 25.8055 20 25.3333C20 24.8611 20.16 24.4655 20.48 24.1466C20.7989 23.8266 21.1944 23.6666 21.6667 23.6666C22.1389 23.6666 22.5344 23.8266 22.8533 24.1466C23.1733 24.4655 23.3333 24.8611 23.3333 25.3333C23.3333 25.8055 23.1733 26.2011 22.8533 26.52C22.5344 26.84 22.1389 27 21.6667 27ZM3.33333 33.6666C2.41667 33.6666 1.63167 33.3405 0.978333 32.6883C0.326111 32.035 0 31.25 0 30.3333V6.99998C0 6.08331 0.326111 5.29887 0.978333 4.64665C1.63167 3.99331 2.41667 3.66665 3.33333 3.66665H5V1.99998C5 1.52776 5.15944 1.13165 5.47833 0.811646C5.79833 0.492757 6.19444 0.333313 6.66667 0.333313C7.13889 0.333313 7.535 0.492757 7.855 0.811646C8.17389 1.13165 8.33333 1.52776 8.33333 1.99998V3.66665H21.6667V1.99998C21.6667 1.52776 21.8267 1.13165 22.1467 0.811646C22.4656 0.492757 22.8611 0.333313 23.3333 0.333313C23.8056 0.333313 24.2011 0.492757 24.52 0.811646C24.84 1.13165 25 1.52776 25 1.99998V3.66665H26.6667C27.5833 3.66665 28.3683 3.99331 29.0217 4.64665C29.6739 5.29887 30 6.08331 30 6.99998V30.3333C30 31.25 29.6739 32.035 29.0217 32.6883C28.3683 33.3405 27.5833 33.6666 26.6667 33.6666H3.33333ZM3.33333 30.3333H26.6667V13.6666H3.33333V30.3333ZM3.33333 10.3333H26.6667V6.99998H3.33333V10.3333Z" fill="url(#paint0_linear_5_865)"/>
<defs>
<linearGradient id="paint0_linear_5_865" x1="9.9825e-07" y1="-6.71856e-07" x2="30" y2="34" gradientUnits="userSpaceOnUse">
<stop stop-color="#21BEF1"/>
<stop offset="1" stop-color="#73BF2D"/>
</linearGradient>
</defs>
</svg>
