<svg width="34" height="18" viewBox="0 0 34 18" fill="none" xmlns="http://www.w3.org/2000/svg">
<path d="M8.66683 17.3333C6.36127 17.3333 4.39627 16.5205 2.77183 14.895C1.14627 13.2705 0.333496 11.3055 0.333496 8.99999C0.333496 6.69443 1.14627 4.72888 2.77183 3.10332C4.39627 1.47888 6.36127 0.666656 8.66683 0.666656H13.6668C14.1391 0.666656 14.5352 0.826101 14.8552 1.14499C15.1741 1.46499 15.3335 1.8611 15.3335 2.33332C15.3335 2.80555 15.1741 3.2011 14.8552 3.51999C14.5352 3.83999 14.1391 3.99999 13.6668 3.99999H8.66683C7.27794 3.99999 6.09738 4.4861 5.12516 5.45832C4.15294 6.43055 3.66683 7.6111 3.66683 8.99999C3.66683 10.3889 4.15294 11.5694 5.12516 12.5417C6.09738 13.5139 7.27794 14 8.66683 14H13.6668C14.1391 14 14.5352 14.1594 14.8552 14.4783C15.1741 14.7983 15.3335 15.1944 15.3335 15.6667C15.3335 16.1389 15.1741 16.5344 14.8552 16.8533C14.5352 17.1733 14.1391 17.3333 13.6668 17.3333H8.66683ZM12.0002 10.6667C11.5279 10.6667 11.1324 10.5067 10.8135 10.1867C10.4935 9.86777 10.3335 9.47221 10.3335 8.99999C10.3335 8.52777 10.4935 8.13166 10.8135 7.81166C11.1324 7.49277 11.5279 7.33332 12.0002 7.33332H22.0002C22.4724 7.33332 22.8685 7.49277 23.1885 7.81166C23.5074 8.13166 23.6668 8.52777 23.6668 8.99999C23.6668 9.47221 23.5074 9.86777 23.1885 10.1867C22.8685 10.5067 22.4724 10.6667 22.0002 10.6667H12.0002ZM20.3335 17.3333C19.8613 17.3333 19.4657 17.1733 19.1468 16.8533C18.8268 16.5344 18.6668 16.1389 18.6668 15.6667C18.6668 15.1944 18.8268 14.7983 19.1468 14.4783C19.4657 14.1594 19.8613 14 20.3335 14H25.3335C26.7224 14 27.9029 13.5139 28.8752 12.5417C29.8474 11.5694 30.3335 10.3889 30.3335 8.99999C30.3335 7.6111 29.8474 6.43055 28.8752 5.45832C27.9029 4.4861 26.7224 3.99999 25.3335 3.99999H20.3335C19.8613 3.99999 19.4657 3.83999 19.1468 3.51999C18.8268 3.2011 18.6668 2.80555 18.6668 2.33332C18.6668 1.8611 18.8268 1.46499 19.1468 1.14499C19.4657 0.826101 19.8613 0.666656 20.3335 0.666656H25.3335C27.6391 0.666656 29.6046 1.47888 31.2302 3.10332C32.8546 4.72888 33.6668 6.69443 33.6668 8.99999C33.6668 11.3055 32.8546 13.2705 31.2302 14.895C29.6046 16.5205 27.6391 17.3333 25.3335 17.3333H20.3335Z" fill="url(#paint0_linear_25_4520)"/>
<defs>
<linearGradient id="paint0_linear_25_4520" x1="-0.999879" y1="-1.00009" x2="34.0001" y2="20.4999" gradientUnits="userSpaceOnUse">
<stop stop-color="#21BEF1"/>
<stop offset="1" stop-color="#73BF2D"/>
</linearGradient>
</defs>
</svg>
