<svg width="32" height="32" viewBox="0 0 32 32" fill="none" xmlns="http://www.w3.org/2000/svg">
<rect x="2" y="5" width="4" height="23" rx="1" stroke="#C8C8C8" stroke-width="2"/>
<path d="M3 3C3 2.44772 3.44772 2 4 2C4.55228 2 5 2.44772 5 3V4H3V3Z" fill="#C8C8C8"/>
<path d="M27 3C27 2.44772 27.4477 2 28 2C28.5523 2 29 2.44772 29 3V4H27V3Z" fill="#C8C8C8"/>
<path d="M29 30C29 30.5523 28.5523 31 28 31C27.4477 31 27 30.5523 27 30L27 29L29 29L29 30Z" fill="#C8C8C8"/>
<path d="M5 30C5 30.5523 4.55228 31 4 31C3.44772 31 3 30.5523 3 30L3 29L5 29L5 30Z" fill="#C8C8C8"/>
<rect x="6" y="8" width="20" height="17" stroke="#C8C8C8" stroke-width="2"/>
<rect x="8" y="11" width="6" height="1" rx="0.5" fill="#C8C8C8"/>
<rect x="8" y="14" width="6" height="1" rx="0.5" fill="#C8C8C8"/>
<rect x="8" y="17" width="6" height="1" rx="0.5" fill="#C8C8C8"/>
<rect x="8" y="20" width="6" height="1" rx="0.5" fill="#C8C8C8"/>
<rect x="18" y="11" width="6" height="1" rx="0.5" fill="#C8C8C8"/>
<rect x="18" y="14" width="6" height="1" rx="0.5" fill="#C8C8C8"/>
<rect x="18" y="17" width="6" height="1" rx="0.5" fill="#C8C8C8"/>
<rect x="18" y="20" width="6" height="1" rx="0.5" fill="#C8C8C8"/>
<rect x="26" y="5" width="4" height="23" rx="1" stroke="#C8C8C8" stroke-width="2"/>
</svg>
