<svg width="32" height="32" viewBox="0 0 32 32" fill="none" xmlns="http://www.w3.org/2000/svg">
<path d="M6 6.99389V18H26V6.99389C26.0001 6.86339 25.974 6.73416 25.9232 6.61358C25.8724 6.493 25.798 6.38343 25.7041 6.29113C25.6102 6.19884 25.4988 6.12562 25.3761 6.07567C25.2534 6.02571 25.1219 6 24.9891 6H7.0114C6.74316 6 6.4859 6.10471 6.29623 6.2911C6.10656 6.47749 6 6.73029 6 6.99389ZM8.73613 8.89502C8.73613 8.5908 9.47351 8.50121 9.70144 8.7754L10.6362 9.90762C10.7133 10.0007 10.8746 10.0637 11.0575 10.0715L11.5389 10.0917C11.8354 10.1045 12.0483 10.2566 12.0003 10.4211L11.7533 11.2609L11.6296 11.6817L11.3245 12.7155C11.3884 12.7769 11.439 12.8503 11.4735 12.9313C11.5079 13.0123 11.5254 13.0993 11.5249 13.1871V14.5049H15.6511V13.2393C15.6509 13.1509 15.6689 13.0634 15.704 12.982C15.7391 12.9006 15.7907 12.827 15.8555 12.7657L15.4046 11.8875C15.3632 11.8191 15.2989 11.7669 15.2228 11.7398C15.1262 11.7009 15.0226 11.6815 14.9182 11.6827C14.6387 11.6827 14.4123 11.5552 14.4123 11.3987V8.89502C14.4123 8.5908 15.1497 8.50121 15.3776 8.7754L16.3128 9.90762C16.39 10.0007 16.5508 10.0637 16.7336 10.0715L17.215 10.0917C17.5116 10.1045 17.725 10.2566 17.6764 10.4211L17.4294 11.2609L17.3057 11.6817L16.9786 12.7948C17.0914 12.9157 17.154 13.0738 17.1539 13.2378V14.5049H21.2796V13.2393C21.2788 13.0757 21.3401 12.9178 21.4515 12.7962L20.9846 11.8875C20.9428 11.8193 20.8784 11.7671 20.8023 11.7398C20.7058 11.7009 20.6024 11.6815 20.4982 11.6827C20.2187 11.6827 19.9917 11.5552 19.9917 11.3987V8.89502C19.9917 8.5908 20.7296 8.50121 20.9575 8.7754L21.8923 9.90762C21.9694 10.0007 22.1302 10.0637 22.3136 10.0715L22.795 10.0917C23.091 10.1045 23.3044 10.2566 23.2559 10.4211L23.0089 11.2609L22.8882 11.6822L22.5711 12.7574C22.6387 12.8189 22.6926 12.8935 22.7294 12.9766C22.7662 13.0596 22.7851 13.1492 22.785 13.2398V15.3393C22.785 15.5142 22.7143 15.682 22.5884 15.8057C22.4625 15.9294 22.2917 15.9989 22.1137 15.9989H21.9534C21.9028 15.9989 21.8524 15.9933 21.8031 15.9822H10.9929C10.9221 15.9823 10.8517 15.9713 10.7845 15.9497H10.6958C10.5178 15.9497 10.347 15.8802 10.2212 15.7565C10.0953 15.6328 10.0245 15.465 10.0245 15.2901V13.1901C10.0242 13.0355 10.0796 12.8859 10.1808 12.7677L9.72999 11.8875C9.68843 11.819 9.62399 11.7669 9.54765 11.7398C9.45124 11.7009 9.34782 11.6815 9.24358 11.6827C8.96406 11.6827 8.73763 11.5552 8.73763 11.3987L8.73613 8.89502Z" fill="#C8C8C8"/>
<rect x="2" y="20" width="28" height="7" rx="1" fill="#C8C8C8"/>
</svg>
