<svg width="30" height="30" viewBox="0 0 30 30" fill="none" xmlns="http://www.w3.org/2000/svg">
<path d="M3.33333 30C2.41667 30 1.63167 29.6739 0.978333 29.0217C0.326111 28.3683 0 27.5833 0 26.6667V3.33333C0 2.41667 0.326111 1.63167 0.978333 0.978333C1.63167 0.326111 2.41667 0 3.33333 0H26.6667C27.5833 0 28.3683 0.326111 29.0217 0.978333C29.6739 1.63167 30 2.41667 30 3.33333V26.6667C30 27.5833 29.6739 28.3683 29.0217 29.0217C28.3683 29.6739 27.5833 30 26.6667 30H3.33333ZM3.33333 26.6667H26.6667V6.66667H3.33333V26.6667ZM8.33333 15C7.86111 15 7.465 14.84 7.145 14.52C6.82611 14.2011 6.66667 13.8056 6.66667 13.3333C6.66667 12.8611 6.82611 12.465 7.145 12.145C7.465 11.8261 7.86111 11.6667 8.33333 11.6667H21.6667C22.1389 11.6667 22.5344 11.8261 22.8533 12.145C23.1733 12.465 23.3333 12.8611 23.3333 13.3333C23.3333 13.8056 23.1733 14.2011 22.8533 14.52C22.5344 14.84 22.1389 15 21.6667 15H8.33333ZM8.33333 21.6667C7.86111 21.6667 7.465 21.5067 7.145 21.1867C6.82611 20.8678 6.66667 20.4722 6.66667 20C6.66667 19.5278 6.82611 19.1317 7.145 18.8117C7.465 18.4928 7.86111 18.3333 8.33333 18.3333H15C15.4722 18.3333 15.8683 18.4928 16.1883 18.8117C16.5072 19.1317 16.6667 19.5278 16.6667 20C16.6667 20.4722 16.5072 20.8678 16.1883 21.1867C15.8683 21.5067 15.4722 21.6667 15 21.6667H8.33333Z" fill="url(#paint0_linear_5_896)"/>
<defs>
<linearGradient id="paint0_linear_5_896" x1="0" y1="0" x2="30" y2="33.5" gradientUnits="userSpaceOnUse">
<stop stop-color="#21BEF1"/>
<stop offset="1" stop-color="#73BF2D"/>
</linearGradient>
</defs>
</svg>
