<svg width="34" height="33" viewBox="0 0 34 33" fill="none" xmlns="http://www.w3.org/2000/svg">
<path d="M8.83342 14.9166C9.2223 14.1389 9.62508 13.3889 10.0417 12.6666C10.4584 11.9444 10.9167 11.2222 11.4167 10.5L9.08342 10.0416L5.58342 13.5416L8.83342 14.9166ZM28.9167 3.45831C26.9723 3.51386 24.8962 4.08331 22.6884 5.16664C20.4795 6.24997 18.4723 7.69442 16.6667 9.49997C15.5001 10.6666 14.4584 11.9166 13.5417 13.25C12.6251 14.5833 11.9445 15.8333 11.5001 17L16.2501 21.7083C17.4167 21.2639 18.6667 20.5833 20.0001 19.6666C21.3334 18.75 22.5834 17.7083 23.7501 16.5416C25.5556 14.7361 27.0001 12.7361 28.0834 10.5416C29.1667 8.34719 29.7362 6.27775 29.7917 4.33331C29.7917 4.22219 29.7712 4.11108 29.7301 3.99997C29.6879 3.88886 29.6251 3.79164 29.5417 3.70831C29.4584 3.62497 29.3612 3.56219 29.2501 3.51997C29.139 3.47886 29.0279 3.45831 28.9167 3.45831ZM19.7501 13.4583C19.1112 12.8194 18.7917 12.0344 18.7917 11.1033C18.7917 10.1733 19.1112 9.38886 19.7501 8.74997C20.389 8.11108 21.1806 7.79164 22.1251 7.79164C23.0695 7.79164 23.8612 8.11108 24.5001 8.74997C25.139 9.38886 25.4584 10.1733 25.4584 11.1033C25.4584 12.0344 25.139 12.8194 24.5001 13.4583C23.8612 14.0972 23.0695 14.4166 22.1251 14.4166C21.1806 14.4166 20.389 14.0972 19.7501 13.4583ZM18.3334 24.375L19.7084 27.6666L23.2084 24.1666L22.7501 21.8333C22.0279 22.3333 21.3056 22.7844 20.5834 23.1866C19.8612 23.59 19.1112 23.9861 18.3334 24.375ZM32.9584 2.12497C33.1806 5.18053 32.6806 8.15942 31.4584 11.0616C30.2362 13.965 28.3056 16.7361 25.6667 19.375L26.5001 23.5C26.6112 24.0555 26.5834 24.5972 26.4167 25.125C26.2501 25.6528 25.9723 26.1111 25.5834 26.5L20.3334 31.75C19.9167 32.1666 19.4167 32.3261 18.8334 32.2283C18.2501 32.1316 17.8473 31.8055 17.6251 31.25L15.0834 25.2916L7.95841 18.1666L2.00008 15.625C1.44453 15.4028 1.11119 15 1.00008 14.4166C0.888971 13.8333 1.04175 13.3333 1.45841 12.9166L6.70841 7.66664C7.0973 7.27775 7.56286 6.99997 8.10508 6.83331C8.64619 6.66664 9.19453 6.63886 9.75008 6.74997L13.8751 7.5833C16.514 4.94442 19.2851 3.01386 22.1884 1.79164C25.0906 0.569416 28.0695 0.0694163 31.1251 0.291639C31.3473 0.319416 31.5695 0.381638 31.7917 0.478305C32.014 0.576083 32.2084 0.708305 32.3751 0.874972C32.5418 1.04164 32.6734 1.23608 32.7701 1.45831C32.8679 1.68053 32.9306 1.90275 32.9584 2.12497ZM3.54175 22.625C4.51397 21.6528 5.70119 21.1594 7.10342 21.145C8.50675 21.1316 9.69453 21.6111 10.6667 22.5833C11.639 23.5555 12.1179 24.7428 12.1034 26.145C12.0901 27.5483 11.5973 28.7361 10.6251 29.7083C9.93064 30.4028 8.77119 31 7.14675 31.5C5.52119 32 3.27786 32.4444 0.416748 32.8333C0.805637 29.9722 1.25008 27.7289 1.75008 26.1033C2.25008 24.4789 2.8473 23.3194 3.54175 22.625ZM5.91675 24.9583C5.63897 25.2361 5.36119 25.7433 5.08342 26.48C4.80564 27.2155 4.61119 27.9583 4.50008 28.7083C5.25008 28.5972 5.99341 28.41 6.73008 28.1466C7.46564 27.8822 7.9723 27.6111 8.25008 27.3333C8.58342 27 8.76397 26.5972 8.79175 26.125C8.81953 25.6528 8.66675 25.25 8.33342 24.9166C8.00008 24.5833 7.5973 24.4233 7.12508 24.4366C6.65286 24.4511 6.25008 24.625 5.91675 24.9583Z" fill="url(#paint0_linear_41_11904)"/>
<defs>
<linearGradient id="paint0_linear_41_11904" x1="0.000122769" y1="-0.000122548" x2="33.0001" y2="37.9999" gradientUnits="userSpaceOnUse">
<stop stop-color="#21BEF1"/>
<stop offset="1" stop-color="#73BF2D"/>
</linearGradient>
</defs>
</svg>
