<svg width="33" height="33" viewBox="0 0 33 33" fill="none" xmlns="http://www.w3.org/2000/svg">
<path d="M14.2261 16.852C14.2261 17.4339 14.1909 18.2647 14.0374 19.15C13.7119 21.0246 12.4905 22.183 12.4903 24.8165C12.4904 26.4807 13.6297 29.0349 17.0777 29.0342C20.5256 29.0335 21.6649 26.4805 21.665 24.8166C21.6651 22.1826 20.4435 21.0252 20.118 19.1501C19.9642 18.2651 19.9289 17.4337 19.9291 16.8521C18.0301 16.7701 16.129 16.7701 14.2261 16.852Z" fill="#C8C8C8"/>
<path d="M13 12.0005C13 11.4482 13.4477 11.0005 14 11.0005L20 11.0005C20.5523 11.0005 21 11.4482 21 12.0005L21 15.0005L13 15.0005L13 12.0005Z" fill="#C8C8C8"/>
<path d="M6 16.0005C6 16.0005 10.5 15.0005 17 15.0005C23.5 15.0005 28 16.0005 28 16.0005" stroke="#C8C8C8" stroke-width="2" stroke-linecap="round"/>
<path d="M24 9.00049C24 12.1929 20.9956 15.0005 17 15.0005C13.0044 15.0005 10 12.1929 10 9.00049C10 5.80803 13.0044 3.00049 17 3.00049C20.9956 3.00049 24 5.80804 24 9.00049Z" stroke="#C8C8C8" stroke-width="2"/>
</svg>
