<svg width="35" height="33" viewBox="0 0 35 33" fill="none" xmlns="http://www.w3.org/2000/svg">
<path d="M2.66675 32.5C2.00008 32.75 1.41008 32.6178 0.896746 32.1033C0.382302 31.59 0.250079 31 0.50008 30.3333L5.87508 15.2917C6.26397 14.125 7.05564 13.4028 8.25008 13.125C9.44452 12.8472 10.4862 13.1528 11.3751 14.0417L18.9584 21.625C19.8473 22.5139 20.1529 23.5556 19.8751 24.75C19.5973 25.9444 18.8751 26.7361 17.7084 27.125L2.66675 32.5ZM4.83341 28.1667L16.5834 24L9.00008 16.4167L4.83341 28.1667ZM19.3751 17.0417C19.1251 16.7917 19.0001 16.5 19.0001 16.1667C19.0001 15.8333 19.1251 15.5417 19.3751 15.2917L27.8334 6.83333C28.7223 5.94444 29.7917 5.5 31.0417 5.5C32.2917 5.5 33.3612 5.94444 34.2501 6.83333L34.4167 7C34.639 7.22222 34.7501 7.5 34.7501 7.83333C34.7501 8.16667 34.6251 8.45833 34.3751 8.70833C34.1251 8.95833 33.8334 9.08333 33.5001 9.08333C33.1667 9.08333 32.8751 8.95833 32.6251 8.70833L32.5001 8.58333C32.1112 8.19444 31.6251 8 31.0417 8C30.4584 8 29.9723 8.19444 29.5834 8.58333L21.0834 17.0833C20.8612 17.3056 20.5834 17.4167 20.2501 17.4167C19.9167 17.4167 19.6251 17.2917 19.3751 17.0417ZM12.7084 10.375C12.4584 10.125 12.3334 9.83333 12.3334 9.5C12.3334 9.16666 12.4584 8.875 12.7084 8.625L12.8334 8.5C13.2223 8.11111 13.4167 7.63889 13.4167 7.08333C13.4167 6.52778 13.2223 6.05555 12.8334 5.66667L12.5834 5.41667C12.3612 5.19444 12.2501 4.91667 12.2501 4.58333C12.2501 4.25 12.3751 3.95833 12.6251 3.70833C12.8751 3.45833 13.1667 3.33333 13.5001 3.33333C13.8334 3.33333 14.1251 3.45833 14.3751 3.70833L14.5834 3.91667C15.4723 4.80556 15.9167 5.86111 15.9167 7.08333C15.9167 8.30555 15.4723 9.36111 14.5834 10.25L14.4167 10.4167C14.1945 10.6389 13.9167 10.75 13.5834 10.75C13.2501 10.75 12.9584 10.625 12.7084 10.375ZM16.0417 13.7083C15.7917 13.4583 15.6667 13.1667 15.6667 12.8333C15.6667 12.5 15.7917 12.2083 16.0417 11.9583L21.1667 6.83333C21.5556 6.44444 21.7501 5.95833 21.7501 5.375C21.7501 4.79167 21.5556 4.30556 21.1667 3.91667L19.3334 2.08333C19.1112 1.86111 19.0001 1.58333 19.0001 1.25C19.0001 0.916667 19.1251 0.625 19.3751 0.375C19.6251 0.125 19.9167 0 20.2501 0C20.5834 0 20.8751 0.125 21.1251 0.375L22.9167 2.16667C23.8056 3.05556 24.2501 4.125 24.2501 5.375C24.2501 6.625 23.8056 7.69444 22.9167 8.58333L17.7501 13.75C17.5279 13.9722 17.2501 14.0833 16.9167 14.0833C16.5834 14.0833 16.2917 13.9583 16.0417 13.7083ZM22.7084 20.375C22.4584 20.125 22.3334 19.8333 22.3334 19.5C22.3334 19.1667 22.4584 18.875 22.7084 18.625L24.5001 16.8333C25.389 15.9444 26.4584 15.5 27.7084 15.5C28.9584 15.5 30.0279 15.9444 30.9167 16.8333L32.7501 18.6667C32.9723 18.8889 33.0834 19.1667 33.0834 19.5C33.0834 19.8333 32.9584 20.125 32.7084 20.375C32.4584 20.625 32.1667 20.75 31.8334 20.75C31.5001 20.75 31.2084 20.625 30.9584 20.375L29.1667 18.5833C28.7779 18.1944 28.2917 18 27.7084 18C27.1251 18 26.639 18.1944 26.2501 18.5833L24.4167 20.4167C24.1945 20.6389 23.9167 20.75 23.5834 20.75C23.2501 20.75 22.9584 20.625 22.7084 20.375Z" fill="url(#paint0_linear_20_2037)"/>
<defs>
<linearGradient id="paint0_linear_20_2037" x1="0.000122099" y1="-1.97616e-07" x2="35.0001" y2="36" gradientUnits="userSpaceOnUse">
<stop stop-color="#21BEF1"/>
<stop offset="1" stop-color="#73BF2D"/>
</linearGradient>
</defs>
</svg>
