<svg width="18" height="18" viewBox="0 0 18 18" fill="none" xmlns="http://www.w3.org/2000/svg">
<g clip-path="url(#clip0_117_420)">
<path d="M16.488 18C16.092 18 15.714 17.838 15.426 17.568L11.52 13.644C11.502 13.644 11.502 13.626 11.484 13.608L11.466 13.59C10.26 14.382 8.856 14.796 7.416 14.796C3.33 14.814 0 11.502 0 7.416C0 3.33 3.312 0 7.398 0C11.484 0 14.796 3.312 14.814 7.398C14.814 8.838 14.4 10.26 13.59 11.466L13.608 11.484C13.626 11.502 13.644 11.52 13.644 11.52L17.55 15.426C18.144 16.02 18.144 16.974 17.55 17.55C17.28 17.838 16.902 18 16.488 18ZM7.398 2.556C4.734 2.574 2.574 4.734 2.574 7.416C2.592 10.098 4.77 12.24 7.434 12.24C10.098 12.24 12.258 10.062 12.258 7.38C12.258 5.418 11.07 3.672 9.252 2.916C8.658 2.682 8.028 2.556 7.398 2.556Z" fill="#C8C8C8"/>
</g>
<defs>
<clipPath id="clip0_117_420">
<rect width="18" height="18" fill="white"/>
</clipPath>
</defs>
</svg>
