<svg width="24" height="28" viewBox="0 0 24 28" fill="none" xmlns="http://www.w3.org/2000/svg">
<path d="M4 27.3333C2.88889 27.3333 1.94444 26.9444 1.16667 26.1667C0.388889 25.3889 0 24.4444 0 23.3333V20.6667C0 20.2889 0.128 19.9724 0.384 19.7173C0.639111 19.4613 0.955556 19.3333 1.33333 19.3333H4V1.63332C4 1.43332 4.08889 1.3111 4.26667 1.26665C4.44444 1.22221 4.62222 1.28887 4.8 1.46665L6 2.66665L7.53333 1.13332C7.66667 0.999986 7.82222 0.933319 8 0.933319C8.17778 0.933319 8.33333 0.999986 8.46667 1.13332L10 2.66665L11.5333 1.13332C11.6667 0.999986 11.8222 0.933319 12 0.933319C12.1778 0.933319 12.3333 0.999986 12.4667 1.13332L14 2.66665L15.5333 1.13332C15.6667 0.999986 15.8222 0.933319 16 0.933319C16.1778 0.933319 16.3333 0.999986 16.4667 1.13332L18 2.66665L19.5333 1.13332C19.6667 0.999986 19.8222 0.933319 20 0.933319C20.1778 0.933319 20.3333 0.999986 20.4667 1.13332L22 2.66665L23.2 1.46665C23.3778 1.28887 23.5556 1.21643 23.7333 1.24932C23.9111 1.2831 24 1.4111 24 1.63332V23.3333C24 24.4444 23.6111 25.3889 22.8333 26.1667C22.0556 26.9444 21.1111 27.3333 20 27.3333H4ZM20 24.6667C20.3778 24.6667 20.6942 24.5387 20.9493 24.2827C21.2053 24.0275 21.3333 23.7111 21.3333 23.3333V4.66665H6.66667V19.3333H17.3333C17.7111 19.3333 18.0276 19.4613 18.2827 19.7173C18.5387 19.9724 18.6667 20.2889 18.6667 20.6667V23.3333C18.6667 23.7111 18.7947 24.0275 19.0507 24.2827C19.3058 24.5387 19.6222 24.6667 20 24.6667ZM9.3 9.99999C8.92222 9.99999 8.61111 9.87199 8.36667 9.61599C8.12222 9.36087 8 9.04443 8 8.66665C8 8.28887 8.128 7.97199 8.384 7.71599C8.63911 7.46087 8.95556 7.33332 9.33333 7.33332H14.6667C15.0444 7.33332 15.3613 7.46087 15.6173 7.71599C15.8724 7.97199 16 8.28887 16 8.66665C16 9.04443 15.8724 9.36087 15.6173 9.61599C15.3613 9.87199 15.0444 9.99999 14.6667 9.99999H9.3ZM9.3 14C8.92222 14 8.61111 13.872 8.36667 13.616C8.12222 13.3609 8 13.0444 8 12.6667C8 12.2889 8.128 11.972 8.384 11.716C8.63911 11.4609 8.95556 11.3333 9.33333 11.3333H14.6667C15.0444 11.3333 15.3613 11.4609 15.6173 11.716C15.8724 11.972 16 12.2889 16 12.6667C16 13.0444 15.8724 13.3609 15.6173 13.616C15.3613 13.872 15.0444 14 14.6667 14H9.3ZM18.6667 9.99999C18.2889 9.99999 17.9724 9.87199 17.7173 9.61599C17.4613 9.36087 17.3333 9.04443 17.3333 8.66665C17.3333 8.28887 17.4613 7.97199 17.7173 7.71599C17.9724 7.46087 18.2889 7.33332 18.6667 7.33332C19.0444 7.33332 19.3609 7.46087 19.616 7.71599C19.872 7.97199 20 8.28887 20 8.66665C20 9.04443 19.872 9.36087 19.616 9.61599C19.3609 9.87199 19.0444 9.99999 18.6667 9.99999ZM18.6667 14C18.2889 14 17.9724 13.872 17.7173 13.616C17.4613 13.3609 17.3333 13.0444 17.3333 12.6667C17.3333 12.2889 17.4613 11.972 17.7173 11.716C17.9724 11.4609 18.2889 11.3333 18.6667 11.3333C19.0444 11.3333 19.3609 11.4609 19.616 11.716C19.872 11.972 20 12.2889 20 12.6667C20 13.0444 19.872 13.3609 19.616 13.616C19.3609 13.872 19.0444 14 18.6667 14ZM4 24.6667H16V22H2.66667V23.3333C2.66667 23.7111 2.79422 24.0275 3.04933 24.2827C3.30533 24.5387 3.62222 24.6667 4 24.6667Z" fill="white"/>
</svg>
