<svg width="33" height="32" viewBox="0 0 33 32" fill="none" xmlns="http://www.w3.org/2000/svg">
<path d="M11.3669 11.8588C11.3669 11.8447 11.3669 11.831 11.369 11.8173C11.369 11.6726 11.4169 11.5088 11.3627 11.3894C11.3085 11.27 11.1163 11.3007 10.9874 11.2509C10.6088 11.1029 10.3749 10.6704 10.4496 10.2338C10.5242 9.79714 10.8494 9.51103 11.2764 9.50108C11.7034 9.49112 12.052 9.6914 12.1991 10.0493C12.3576 10.4349 12.2955 10.7923 12.0073 11.1025C11.9611 11.1522 11.9002 11.1854 11.9623 11.2708C12.408 11.897 12.8592 12.5148 13.4563 13.0161C13.7786 13.286 14.141 13.3632 14.5433 13.3089C14.7985 13.2749 14.9603 13.1015 15.1033 12.9112C15.3952 12.526 15.5732 12.0819 15.7146 11.6258C15.9266 10.9545 16.0814 10.2666 16.1774 9.56949C16.2024 9.37792 16.2066 9.24358 15.9689 9.13701C15.4982 8.92471 15.2951 8.39353 15.4319 7.89553C15.5862 7.33243 16.0315 6.98329 16.5794 6.99905C17.0972 7.01273 17.5751 7.4137 17.6889 7.93161C17.749 8.20409 17.7056 8.48904 17.567 8.73158C17.4284 8.97412 17.2045 9.15709 16.9384 9.24523C16.8667 9.27053 16.7912 9.27509 16.817 9.39036C17.0405 10.3855 17.2069 11.3948 17.5884 12.3493C17.6676 12.5407 17.7615 12.7256 17.8695 12.9025C18.1939 13.4486 18.7034 13.5133 19.2575 13.2711C19.534 13.1505 19.7612 12.9535 19.9776 12.7487C20.5589 12.1984 21.0455 11.5694 21.5054 10.9188C21.56 10.8412 21.5508 10.8023 21.4933 10.728C21.2452 10.4104 21.246 10.0571 21.4233 9.7167C21.6117 9.35429 21.9561 9.24897 22.3406 9.28089C22.7104 9.31158 22.981 9.50771 23.1132 9.85478C23.3217 10.4063 22.9152 11.0104 22.2997 11.0573C22.1513 11.0685 22.1025 11.1124 22.0783 11.2526C21.9457 12.0284 21.7864 12.8005 21.8531 13.5954C21.8682 13.7744 21.9036 13.9512 21.9586 14.1224C22.1529 14.7237 22.6587 15.0276 23.3225 14.9467C23.703 14.9038 24.0681 14.7733 24.3891 14.5657C25.1077 14.1038 25.7481 13.5317 26.2867 12.8706C26.3956 12.7362 26.4272 12.6263 26.3284 12.4534C26.2118 12.2578 26.177 12.0245 26.2316 11.8036C26.2862 11.5828 26.4258 11.392 26.6203 11.2725C27.0293 11.0146 27.6139 11.0983 27.885 11.4537C28.156 11.809 28.0934 12.3717 27.7407 12.6956C27.5418 12.8789 27.3029 12.9257 27.046 12.9075C26.9063 12.8979 26.8417 12.9344 26.8075 13.0858C26.6374 13.84 26.4393 14.5885 26.4414 15.3697C26.4382 15.5562 26.4612 15.7423 26.5098 15.9224C26.7437 16.7347 27.325 17.0806 28.2023 16.9292C28.9528 16.7994 29.587 16.4167 30.1895 15.9788C30.566 15.7061 30.9125 15.3947 31.2236 15.05C31.342 14.9181 31.3608 14.8153 31.2653 14.6557C31.0785 14.3368 31.0806 14.0017 31.3112 13.7019C31.5501 13.3939 31.8807 13.269 32.2702 13.3362C32.6455 13.4017 32.9402 13.7418 32.9899 14.1489C33.0382 14.5445 32.8719 14.8456 32.4978 15.0197C32.3924 15.0687 32.276 15.118 32.1643 15.123C31.9512 15.1317 31.8457 15.2337 31.7448 15.4157C30.9384 16.8712 30.1487 18.337 29.2751 19.7543C28.8619 20.4252 29.0537 20.2892 28.2944 20.2423C26.8242 20.1519 25.3698 19.916 23.9067 19.7588C22.4056 19.5971 20.9045 19.5001 19.3972 19.4462C17.4879 19.3782 15.5774 19.3508 13.6669 19.4047C11.4986 19.464 9.33876 19.612 7.19223 19.9276C6.48589 20.0317 5.78414 20.1685 5.0803 20.29C5.0386 20.297 4.99691 20.3004 4.95521 20.3078C4.773 20.3414 4.67626 20.2958 4.57994 20.1005C4.10168 19.1186 3.51043 18.1997 2.91458 17.2846C2.62271 16.8388 2.34292 16.3868 2.06522 15.9332C2.04909 15.9001 2.02419 15.872 1.99318 15.8519C1.96218 15.8318 1.92625 15.8205 1.88926 15.8192C1.80626 15.8115 1.72442 15.7944 1.64534 15.7682C1.10328 15.594 0.876456 15.1462 1.06159 14.6125C1.23796 14.0992 1.72873 13.8599 2.24285 14.0349C2.71652 14.1954 2.95169 14.7245 2.77406 15.2212C2.75072 15.286 2.72286 15.349 2.69067 15.4099C2.6594 15.4692 2.67149 15.5078 2.72486 15.5488C3.40952 16.0771 4.04414 16.6725 4.81344 17.0868C5.18204 17.2854 5.56398 17.4455 5.99053 17.4633C6.55052 17.4869 6.91119 17.1962 7.02169 16.6497C7.12843 16.1239 7.05838 15.604 6.97415 15.0852C6.8991 14.6221 6.81279 14.1606 6.73982 13.697C6.72314 13.5912 6.69812 13.5494 6.5772 13.5452C6.37423 13.5414 6.17899 13.4671 6.02532 13.3352C5.87164 13.2032 5.76921 13.022 5.73577 12.8229C5.6603 12.3742 5.87795 11.9683 6.28866 11.7925C6.68395 11.6229 7.13218 11.7539 7.39446 12.1151C7.51491 12.2776 7.57584 12.4762 7.56712 12.6779C7.5584 12.8796 7.48055 13.0722 7.3465 13.2239C7.2998 13.2778 7.23017 13.3068 7.2973 13.408C7.69133 13.9885 8.11414 14.5396 8.75043 14.8899C9.57185 15.3432 10.3436 15.1362 10.7965 14.3165C11.1688 13.6427 11.2931 12.9029 11.3544 12.1486C11.3619 12.0524 11.3544 11.9554 11.3544 11.8584L11.3669 11.8588ZM17.6184 15.6981C17.6282 15.6083 17.6085 15.5178 17.5622 15.4402C17.3271 15.0169 17.0294 14.6311 16.679 14.2957C16.546 14.1672 16.4384 14.1713 16.3088 14.2924C15.9428 14.6424 15.6497 15.0606 15.4461 15.5231C15.3944 15.6376 15.4102 15.752 15.4527 15.8648C15.6835 16.486 15.9752 17.0832 16.3233 17.6478C16.4509 17.8514 16.4864 17.8551 16.6277 17.6648C17.0493 17.0938 17.3587 16.4623 17.6009 15.7989C17.6109 15.7661 17.6168 15.7323 17.6184 15.6981ZM19.7304 16.4859C19.8013 16.9707 19.9193 17.4396 20.1369 17.885C20.197 18.0094 20.2512 17.9949 20.3312 17.9086C20.636 17.579 20.9329 17.2427 21.161 16.8529C21.2068 16.775 21.2485 16.6962 21.2344 16.6008C21.1881 16.252 21.0584 15.9192 20.8562 15.6305C20.7915 15.5405 20.7077 15.509 20.6035 15.5608C20.2812 15.7238 20.0009 15.9581 19.7842 16.2459C19.727 16.3176 19.7345 16.403 19.7304 16.4859ZM13.5176 16.4117C13.5176 16.3333 13.5272 16.2807 13.4834 16.2326C13.2307 15.956 12.9684 15.6935 12.6411 15.5003C12.5315 15.436 12.4631 15.4634 12.4055 15.5671C12.2295 15.872 12.0998 16.2012 12.0207 16.544C12.0019 16.6302 11.9973 16.7169 12.0557 16.8015C12.3141 17.1772 12.6013 17.5325 12.9147 17.8643C13.0227 17.9791 13.0814 17.9414 13.1336 17.8199C13.3387 17.3613 13.4471 16.8786 13.5209 16.4109L13.5176 16.4117ZM10.2069 18.5045C10.2457 18.196 10.2828 17.9294 10.3124 17.6619C10.3837 17.0188 10.347 16.9545 9.76324 16.6555C9.72613 16.6365 9.68943 16.6174 9.65149 16.6008C9.43884 16.51 9.37879 16.5303 9.28789 16.7476C9.20063 16.9591 9.14757 17.183 9.1307 17.411C9.12004 17.4728 9.13298 17.5362 9.16697 17.5889C9.4448 17.9646 9.80059 18.2766 10.2102 18.5037L10.2069 18.5045ZM23.4068 18.5136C23.7341 18.2851 23.9713 18.0052 24.2469 17.7672C24.4554 17.5893 24.5042 17.3899 24.4421 17.1411C24.3961 16.9683 24.3404 16.7981 24.2753 16.6315C24.2303 16.5108 24.1644 16.4976 24.0535 16.534C23.7641 16.6307 23.5046 16.7998 23.3 17.025C23.2793 17.043 23.2632 17.0657 23.253 17.0912C23.2429 17.1166 23.239 17.1441 23.2416 17.1714C23.2979 17.6076 23.3513 18.043 23.4101 18.5128L23.4068 18.5136ZM7.61211 18.4833V18.3175C7.61211 18.0272 7.28688 17.7452 6.99667 17.7826C6.97669 17.7833 6.95727 17.7893 6.94038 17.8C6.84073 17.8875 6.81529 18.3863 6.90786 18.4854C7.03135 18.6252 7.17412 18.747 7.33191 18.847C7.40655 18.8909 7.49077 18.9739 7.57583 18.9212C7.65005 18.8752 7.60544 18.7686 7.61128 18.689C7.61962 18.6206 7.61545 18.5513 7.61545 18.4825L7.61211 18.4833ZM25.9848 18.473C25.9848 18.5833 25.9886 18.6936 25.9848 18.8047C25.9794 18.9262 26.0286 18.9312 26.1183 18.8789C26.3101 18.7678 26.4973 18.6492 26.6478 18.4846C26.7729 18.3482 26.765 17.9157 26.6445 17.7834C26.5982 17.7324 26.5482 17.7419 26.4927 17.7552C26.1099 17.8361 25.9848 17.9878 25.9848 18.3697V18.473Z" fill="#C8C8C8"/>
<path d="M28.5803 21.0193C28.4064 21.3261 28.2408 21.6122 28.082 21.9021C28.0349 21.9879 27.9665 21.9614 27.9014 21.9551C26.6435 21.8357 25.3855 21.7184 24.125 21.6234C21.7691 21.4488 19.4104 21.3468 17.0478 21.3439C14.5598 21.3415 12.0747 21.4144 9.59416 21.6002C8.327 21.6952 7.06277 21.8208 5.80395 21.9945C5.6626 22.014 5.59546 21.9833 5.53459 21.854C5.42826 21.6168 5.30317 21.3837 5.17808 21.1549C5.11345 21.0383 5.11929 20.9965 5.26398 20.9728C6.62745 20.751 7.99427 20.5582 9.36692 20.4018C11.6827 20.141 14.0019 20.0104 16.3319 20.066C18.1795 20.1108 20.0237 20.2115 21.8671 20.3355C23.3432 20.435 24.8167 20.5561 26.2869 20.7273C27.0433 20.8157 27.7993 20.9193 28.5803 21.0193Z" fill="#C8C8C8"/>
</svg>
