<svg width="23" height="32" viewBox="0 0 23 32" fill="none" xmlns="http://www.w3.org/2000/svg">
<path d="M11.6666 32C8.51103 32 5.83325 30.9 3.63325 28.7C1.43325 26.5 0.333252 23.8222 0.333252 20.6667V9.33333C0.333252 8.4 0.655474 7.61111 1.29992 6.96667C1.94436 6.32222 2.73325 6 3.66658 6C3.7777 6 3.88881 6.00533 3.99992 6.016C4.11103 6.02756 4.22214 6.04445 4.33325 6.06667V5.33333C4.33325 4.4 4.65547 3.61111 5.29992 2.96667C5.94436 2.32222 6.73325 2 7.66658 2C7.82214 2 7.97236 2.01111 8.11725 2.03333C8.26125 2.05556 8.41103 2.08889 8.56658 2.13333C8.81103 1.48889 9.21103 0.972444 9.76658 0.584C10.3221 0.194667 10.9555 0 11.6666 0C12.4888 0 13.2057 0.260889 13.8173 0.782667C14.4279 1.30533 14.7999 1.95556 14.9333 2.73333C15.0444 2.71111 15.1613 2.69422 15.2839 2.68267C15.4057 2.672 15.5333 2.66667 15.6666 2.66667C16.5999 2.66667 17.3888 2.98889 18.0333 3.63333C18.6777 4.27778 18.9999 5.06667 18.9999 6V10.7333C19.111 10.7111 19.2221 10.6942 19.3333 10.6827C19.4444 10.672 19.5555 10.6667 19.6666 10.6667C20.5999 10.6667 21.3888 10.9889 22.0333 11.6333C22.6777 12.2778 22.9999 13.0667 22.9999 14V20.6667C22.9999 23.8222 21.8999 26.5 19.6999 28.7C17.4999 30.9 14.8221 32 11.6666 32ZM11.6666 29.3333C12.8666 29.3333 13.9946 29.1058 15.0506 28.6507C16.1057 28.1947 17.0221 27.5778 17.7999 26.8C18.5777 26.0222 19.1946 25.1058 19.6506 24.0507C20.1057 22.9947 20.3333 21.8667 20.3333 20.6667V14C20.3333 13.8222 20.2666 13.6667 20.1333 13.5333C19.9999 13.4 19.8444 13.3333 19.6666 13.3333C19.4888 13.3333 19.3333 13.4 19.1999 13.5333C19.0666 13.6667 18.9999 13.8222 18.9999 14V17.9C18.9999 18.4556 18.8666 18.9387 18.5999 19.3493C18.3333 19.7609 17.8999 20.1111 17.2999 20.4C16.7888 20.6444 16.3501 20.9778 15.9839 21.4C15.6168 21.8222 15.3444 22.3 15.1666 22.8333C15.0555 23.1889 14.8724 23.472 14.6173 23.6827C14.3613 23.8942 14.0777 24 13.7666 24C13.3444 24 13.0053 23.8556 12.7493 23.5667C12.4941 23.2778 12.411 22.9444 12.4999 22.5667C12.7444 21.5 13.1999 20.5609 13.8666 19.7493C14.5333 18.9387 15.3555 18.3222 16.3333 17.9V6C16.3333 5.82222 16.2666 5.66667 16.1333 5.53333C15.9999 5.4 15.8444 5.33333 15.6666 5.33333C15.4888 5.33333 15.3333 5.4 15.1999 5.53333C15.0666 5.66667 14.9999 5.82222 14.9999 6V13.3333C14.9999 13.7111 14.8724 14.0276 14.6173 14.2827C14.3613 14.5387 14.0444 14.6667 13.6666 14.6667C13.2888 14.6667 12.9724 14.5387 12.7173 14.2827C12.4613 14.0276 12.3333 13.7111 12.3333 13.3333V3.33333C12.3333 3.15556 12.2666 3 12.1333 2.86667C11.9999 2.73333 11.8444 2.66667 11.6666 2.66667C11.4888 2.66667 11.3333 2.73333 11.1999 2.86667C11.0666 3 10.9999 3.15556 10.9999 3.33333V13.3333C10.9999 13.7111 10.8724 14.0276 10.6173 14.2827C10.3613 14.5387 10.0444 14.6667 9.66658 14.6667C9.28881 14.6667 8.97236 14.5387 8.71725 14.2827C8.46125 14.0276 8.33325 13.7111 8.33325 13.3333V5.33333C8.33325 5.15556 8.26659 5 8.13325 4.86667C7.99992 4.73333 7.84436 4.66667 7.66658 4.66667C7.48881 4.66667 7.33325 4.73333 7.19992 4.86667C7.06658 5 6.99992 5.15556 6.99992 5.33333V14.6667C6.99992 15.0444 6.87236 15.3609 6.61725 15.616C6.36125 15.872 6.04436 16 5.66658 16C5.28881 16 4.97192 15.872 4.71592 15.616C4.46081 15.3609 4.33325 15.0444 4.33325 14.6667V9.33333C4.33325 9.15556 4.26658 9 4.13325 8.86667C3.99992 8.73333 3.84436 8.66667 3.66658 8.66667C3.48881 8.66667 3.33325 8.73333 3.19992 8.86667C3.06659 9 2.99992 9.15556 2.99992 9.33333V20.6667C2.99992 21.8667 3.22792 22.9947 3.68392 24.0507C4.13903 25.1058 4.75547 26.0222 5.53325 26.8C6.31103 27.5778 7.22792 28.1947 8.28392 28.6507C9.33903 29.1058 10.4666 29.3333 11.6666 29.3333Z" fill="white"/>
</svg>
