<svg width="27" height="23" viewBox="0 0 27 23" fill="none" xmlns="http://www.w3.org/2000/svg">
<path d="M2.36642 23C1.98865 23 1.67176 22.872 1.41576 22.616C1.16065 22.3609 1.03309 22.0444 1.03309 21.6666C1.03309 21.2889 1.16065 20.9724 1.41576 20.7173C1.67176 20.4613 1.98865 20.3333 2.36642 20.3333H23.6998C24.0775 20.3333 24.3944 20.4613 24.6504 20.7173C24.9055 20.9724 25.0331 21.2889 25.0331 21.6666C25.0331 22.0444 24.9055 22.3609 24.6504 22.616C24.3944 22.872 24.0775 23 23.6998 23H2.36642ZM4.46642 16.0666C4.17754 16.1555 3.89976 16.1444 3.63309 16.0333C3.36642 15.9222 3.15531 15.7333 2.99976 15.4666L0.466424 11.1666C0.244202 10.8111 0.205535 10.4778 0.350424 10.1666C0.494424 9.85553 0.777535 9.65553 1.19976 9.56665C1.35531 9.5222 1.53309 9.53331 1.73309 9.59998C1.93309 9.66665 2.08865 9.75553 2.19976 9.86664L4.09976 11.5333L10.4998 9.79998L5.99976 2.16665C5.75531 1.74442 5.71087 1.33865 5.86642 0.949313C6.02198 0.560868 6.33309 0.288869 6.79976 0.133313C7.0442 0.0444241 7.32198 0.0386463 7.63309 0.11598C7.9442 0.194202 8.19976 0.322202 8.39976 0.49998L16.8331 8.06665L23.4998 6.26665C24.2109 6.08887 24.8553 6.23331 25.4331 6.69998C26.0109 7.16665 26.2998 7.77776 26.2998 8.53331C26.2998 9.0222 26.15 9.45553 25.8504 9.83331C25.55 10.2111 25.1664 10.4666 24.6998 10.6L4.46642 16.0666Z" fill="white"/>
</svg>
