<svg width="34" height="32" viewBox="0 0 34 32" fill="none" xmlns="http://www.w3.org/2000/svg">
<path d="M8.66658 20.3334H25.3333C25.8055 20.3334 26.201 20.1734 26.5199 19.8534C26.8399 19.5345 26.9999 19.1389 26.9999 18.6667C26.9999 18.1945 26.8399 17.7984 26.5199 17.4784C26.201 17.1595 25.8055 17 25.3333 17H8.66658C8.19436 17 7.79825 17.1595 7.47825 17.4784C7.15936 17.7984 6.99992 18.1945 6.99992 18.6667C6.99992 19.1389 7.15936 19.5345 7.47825 19.8534C7.79825 20.1734 8.19436 20.3334 8.66658 20.3334ZM8.66658 15.3334H25.3333C25.8055 15.3334 26.201 15.1734 26.5199 14.8534C26.8399 14.5345 26.9999 14.1389 26.9999 13.6667C26.9999 13.1945 26.8399 12.7984 26.5199 12.4784C26.201 12.1595 25.8055 12 25.3333 12H8.66658C8.19436 12 7.79825 12.1595 7.47825 12.4784C7.15936 12.7984 6.99992 13.1945 6.99992 13.6667C6.99992 14.1389 7.15936 14.5345 7.47825 14.8534C7.79825 15.1734 8.19436 15.3334 8.66658 15.3334ZM8.66658 10.3334H25.3333C25.8055 10.3334 26.201 10.1739 26.5199 9.85504C26.8399 9.53504 26.9999 9.13893 26.9999 8.66671C26.9999 8.19449 26.8399 7.79837 26.5199 7.47837C26.201 7.15949 25.8055 7.00004 25.3333 7.00004H8.66658C8.19436 7.00004 7.79825 7.15949 7.47825 7.47837C7.15936 7.79837 6.99992 8.19449 6.99992 8.66671C6.99992 9.13893 7.15936 9.53504 7.47825 9.85504C7.79825 10.1739 8.19436 10.3334 8.66658 10.3334ZM30.8333 30.8334L26.9999 27H3.66659C2.74992 27 1.96547 26.6739 1.31325 26.0217C0.659919 25.3684 0.333252 24.5834 0.333252 23.6667V3.66671C0.333252 2.75004 0.659919 1.96504 1.31325 1.31171C1.96547 0.659485 2.74992 0.333374 3.66659 0.333374H30.3333C31.2499 0.333374 32.0349 0.659485 32.6883 1.31171C33.3405 1.96504 33.6666 2.75004 33.6666 3.66671V29.625C33.6666 30.375 33.3266 30.8956 32.6466 31.1867C31.9655 31.4789 31.361 31.3612 30.8333 30.8334ZM3.66659 3.66671V23.6667H28.3749L30.3333 25.625V3.66671H3.66659Z" fill="url(#paint0_linear_41_11925)"/>
<defs>
<linearGradient id="paint0_linear_41_11925" x1="-0.000122036" y1="6.10094e-05" x2="33.9999" y2="35.5001" gradientUnits="userSpaceOnUse">
<stop stop-color="#21BEF1"/>
<stop offset="1" stop-color="#73BF2D"/>
</linearGradient>
</defs>
</svg>
