<svg width="32" height="32" viewBox="0 0 32 32" fill="none" xmlns="http://www.w3.org/2000/svg">
<path fill-rule="evenodd" clip-rule="evenodd" d="M19 18C19 21.866 15.866 25 12 25C8.13401 25 5 21.866 5 18C5 14.134 8.13401 11 12 11C13.7527 11 15.3549 11.6441 16.5828 12.7086L18.4838 11.7581C16.8465 10.0578 14.5468 9 12 9C7.02944 9 3 13.0294 3 18C3 22.9706 7.02944 27 12 27C16.9706 27 21 22.9706 21 18C21 17.3924 20.9398 16.7988 20.825 16.225L18.9083 16.8639C18.9686 17.2337 19 17.6132 19 18Z" fill="#C8C8C8"/>
<path fill-rule="evenodd" clip-rule="evenodd" d="M14.5816 22.1686C13.8216 19.1056 15.6885 16.0064 18.7515 15.2464C21.8145 14.4863 24.9137 16.3533 25.6737 19.4162C26.4337 22.4792 24.5668 25.5784 21.5038 26.3384C20.1566 26.6727 18.8024 26.4988 17.6433 25.9385L16.0219 27.3233C17.735 28.3999 19.8667 28.8053 21.9855 28.2796C26.1205 27.2535 28.6409 23.0696 27.6148 18.9346C26.5888 14.7995 22.4049 12.2792 18.2698 13.3052C14.1348 14.3313 11.6145 18.5152 12.6405 22.6502C12.7659 23.1556 12.9385 23.6368 13.1523 24.0904L14.8596 23.0082C14.7472 22.7399 14.6539 22.4596 14.5816 22.1686Z" fill="#C8C8C8"/>
<path fill-rule="evenodd" clip-rule="evenodd" d="M22.6339 4C22.2476 4.00127 21.8689 4.10456 21.5379 4.29888C21.207 4.4932 20.9363 4.77131 20.7546 5.10361C20.5748 4.7747 20.3078 4.49882 19.9814 4.30471C19.655 4.1106 19.2812 4.00537 18.8989 4C18.3077 4.01912 17.7485 4.2662 17.3442 4.68693C16.9398 5.10767 16.7234 5.66765 16.7424 6.24384C16.7386 6.57581 16.8089 6.90461 16.9484 7.20745C17.0879 7.5103 17.2934 7.77996 17.5505 7.99772L20.7546 11.1208L23.9588 7.99772C24.2159 7.77996 24.4214 7.5103 24.5609 7.20745C24.7004 6.90461 24.7708 6.57581 24.7669 6.24384C24.786 5.66765 24.5695 5.10767 24.1651 4.68693C23.7608 4.2662 23.2016 4.01912 22.6104 4H22.6339ZM18.0579 4.91586L18.1002 4.87923C18.1718 4.79226 18.2693 4.72904 18.3793 4.69824C18.4893 4.66744 18.6064 4.67056 18.7145 4.70718C18.8225 4.74381 18.9163 4.81212 18.983 4.90278C19.0497 4.99343 19.0859 5.10197 19.0868 5.21351C19.0868 5.51116 18.7908 5.59358 18.5324 5.75386C17.8699 6.15683 18.2928 7.0956 18.5324 7.3383C18.6639 7.46652 18.8754 7.60389 18.7438 7.72753C18.6123 7.85117 18.4666 7.77791 18.3398 7.64969C17.9375 7.31202 17.667 6.84945 17.574 6.34C17.5373 6.08346 17.5605 5.82219 17.6419 5.57561C17.7232 5.32903 17.8606 5.10351 18.0438 4.91586H18.0579Z" fill="#C8C8C8"/>
</svg>
