<svg width="32" height="32" viewBox="0 0 32 32" fill="none" xmlns="http://www.w3.org/2000/svg">
<g clip-path="url(#clip0_71_16857)">
<path fill-rule="evenodd" clip-rule="evenodd" d="M13.7522 22.4691C14.1114 22.8918 14.363 23.395 14.4856 23.9359C14.5088 24.3444 14.1885 24.4465 13.7104 24.479C13.9334 24.9931 14.2698 25.4501 14.6945 25.8158C15.4 26.5213 16.0638 27.1851 15.9663 28.443C15.9639 28.5194 15.9463 28.5945 15.9146 28.6641C15.8828 28.7336 15.8376 28.7961 15.7814 28.848C15.7252 28.8999 15.6593 28.94 15.5874 28.9661C15.5156 28.9922 15.4392 29.0037 15.3629 29C15.2092 28.9791 15.0697 28.899 14.9743 28.7767C14.8789 28.6544 14.8351 28.4996 14.8523 28.3455C14.9033 27.6724 14.4345 27.2036 13.924 26.707C13.232 26.1367 12.7301 25.3693 12.485 24.5068C12.0209 24.5068 11.6495 24.4001 11.6263 24.0009C11.626 23.6722 11.6666 23.3448 11.747 23.0261C8.6928 23.17 5.55967 20.3247 4.39925 16.2586C3.04853 11.5566 5.17907 8.16353 8.62783 6.85458C10.5727 6.11655 12.5222 6.2001 14.0957 7.2584L13.8404 8.01964C12.1416 13.1255 12.6011 17.7068 15.4835 20.9792C15.0131 21.5931 14.4184 22.1008 13.7383 22.4691H13.7522ZM18.25 23.6945C18.3012 24.2251 18.423 24.7465 18.6121 25.2448C18.9834 26.3403 19.3269 27.3707 18.6399 28.5544C18.6046 28.6204 18.5559 28.6782 18.4968 28.7242C18.4378 28.7702 18.3697 28.8032 18.297 28.8211C18.2244 28.8391 18.1487 28.8415 18.0751 28.8284C18.0014 28.8152 17.9313 28.7867 17.8694 28.7447C17.7424 28.6515 17.6542 28.5147 17.6216 28.3606C17.5891 28.2065 17.6145 28.0457 17.693 27.9092C18.0922 27.2268 17.8369 26.4656 17.563 25.658C17.2566 24.8966 17.0991 24.0836 17.0989 23.2629C16.6347 23.0679 16.3562 22.8637 16.4954 22.4784C16.8017 21.9512 17.2463 21.5178 17.7812 21.2252C15.1958 19.8559 13.7058 16.5603 13.7569 12.9955V12.6984C13.7983 11.6262 13.9777 10.5638 14.2906 9.53746C14.7215 7.90808 15.6417 6.45002 16.9271 5.35996L17.4702 4.97006C19.2665 3.83286 21.4899 3.74002 23.7086 4.53375C27.6447 5.92625 30.0723 9.57923 28.5359 14.6247C27.097 19.3406 23.0402 22.5155 19.3083 21.7775C19.3899 22.356 19.3439 22.9454 19.1737 23.5042C19.0437 23.8663 18.7095 23.8431 18.2453 23.7038L18.25 23.6945ZM15.1633 13.3993C15.1633 13.4643 15.1633 13.5339 15.1633 13.5989C15.1409 13.8053 15.2003 14.0123 15.3287 14.1754C15.4571 14.3385 15.6444 14.4448 15.8503 14.4715C15.9515 14.4753 16.0524 14.459 16.1473 14.4237C16.2422 14.3884 16.3292 14.3347 16.4034 14.2657C16.4775 14.1967 16.5373 14.1138 16.5794 14.0217C16.6215 13.9296 16.645 13.8301 16.6486 13.7289C16.6486 13.6036 16.6486 13.4736 16.6857 13.3343C16.7229 13.1951 16.7182 13.0605 16.7414 12.9073C16.7797 12.7013 16.7355 12.4885 16.6182 12.3148C16.501 12.1411 16.3202 12.0205 16.1148 11.979C16.0143 11.9661 15.9122 11.9735 15.8146 12.0008C15.717 12.0281 15.6259 12.0748 15.5466 12.138C15.4674 12.2012 15.4017 12.2797 15.3534 12.3688C15.3051 12.4579 15.2751 12.5558 15.2654 12.6567C15.2654 12.7356 15.2654 12.8145 15.2329 12.8887L15.1819 13.39L15.1633 13.3993ZM18.2778 6.39041L18.1571 6.4786C17.1158 7.36178 16.3639 8.53742 15.9988 9.85309C15.9308 10.0517 15.9409 10.2687 16.0271 10.4601C16.1133 10.6515 16.2692 10.8029 16.463 10.8835C16.5559 10.9136 16.6539 10.9248 16.7512 10.9165C16.8485 10.9082 16.9432 10.8805 17.0296 10.8351C17.1161 10.7897 17.1926 10.7275 17.2547 10.6521C17.3168 10.5767 17.3633 10.4897 17.3913 10.3962C17.6578 9.38907 18.2205 8.48517 19.0066 7.80148C19.3903 7.52756 19.829 7.34041 20.2923 7.25305C20.7556 7.16568 21.2323 7.18018 21.6894 7.29554C21.7897 7.31121 21.8921 7.30641 21.9905 7.28145C22.0889 7.25648 22.1812 7.21186 22.2618 7.15028C22.3425 7.08869 22.4099 7.01142 22.4599 6.92311C22.5099 6.8348 22.5415 6.73727 22.5528 6.63642C22.5893 6.43329 22.5465 6.22392 22.4335 6.05128C22.3204 5.87865 22.1455 5.75584 21.9448 5.70809C20.7378 5.42983 19.4697 5.64007 18.4171 6.29294L18.2685 6.39506L18.2778 6.39041ZM6.2977 17.2519C6.2299 17.054 6.24017 16.8376 6.32643 16.647C6.41268 16.4564 6.56842 16.3058 6.76187 16.2261C6.85538 16.1955 6.95412 16.1842 7.05211 16.1928C7.15011 16.2014 7.24533 16.2298 7.33208 16.2762C7.41882 16.3226 7.49527 16.3861 7.55682 16.4628C7.61837 16.5396 7.66374 16.628 7.6902 16.7228L7.82945 17.1312C7.87586 17.2658 7.9223 17.3912 7.96407 17.5026C8.04209 17.6962 8.04433 17.9121 7.97036 18.1074C7.89639 18.3026 7.75162 18.4629 7.56487 18.5562C7.47323 18.5954 7.37449 18.6153 7.27482 18.6146C7.17515 18.6139 7.07669 18.5926 6.98562 18.5521C6.89456 18.5115 6.81283 18.4527 6.74558 18.3791C6.67832 18.3055 6.62699 18.2189 6.59478 18.1245C6.53908 17.9853 6.488 17.846 6.43695 17.7068C6.38589 17.5675 6.32554 17.3819 6.28376 17.2426L6.2977 17.2519ZM10.1039 7.88038C10.2044 7.86748 10.3065 7.87491 10.4041 7.90222C10.5017 7.92954 10.5928 7.97618 10.6721 8.03939C10.7513 8.1026 10.817 8.18108 10.8653 8.27018C10.9136 8.35928 10.9436 8.45719 10.9533 8.55807C10.989 8.76447 10.9431 8.97664 10.8253 9.14984C10.7075 9.32304 10.5271 9.44373 10.322 9.48641L10.1503 9.51426C9.11024 9.70831 8.18643 10.2992 7.57416 11.162C7.0024 11.9896 6.76372 13.0023 6.90576 13.9981C6.90576 14.0724 6.90576 14.1188 6.90576 14.1374C6.94271 14.3386 6.90192 14.5463 6.79164 14.7186C6.68137 14.8909 6.50983 15.015 6.31164 15.0657C6.21206 15.0821 6.11018 15.0783 6.0121 15.0545C5.91403 15.0307 5.82175 14.9874 5.74075 14.9272C5.65976 14.867 5.5917 14.7911 5.54066 14.7041C5.48961 14.617 5.45661 14.5206 5.44362 14.4205C5.44362 14.3277 5.4158 14.2627 5.41116 14.2255C5.20626 12.8061 5.54621 11.3617 6.36269 10.1827C7.19897 8.99426 8.46656 8.17973 9.89499 7.91288C9.99711 7.91288 10.0714 7.87575 10.1271 7.8711L10.1039 7.88038Z" fill="#C8C8C8"/>
</g>
<defs>
<clipPath id="clip0_71_16857">
<rect width="25" height="25" fill="white" transform="translate(4 4)"/>
</clipPath>
</defs>
</svg>
