<svg width="32" height="32" viewBox="0 0 32 32" fill="none" xmlns="http://www.w3.org/2000/svg">
<path d="M8.66667 28.8671V11.5338L16.6667 3.60043C17 3.26709 17.3942 3.07243 17.8493 3.01643C18.3053 2.96132 18.7444 3.04487 19.1667 3.26709C19.5889 3.48932 19.9 3.80043 20.1 4.20043C20.3 4.60043 20.3444 5.01154 20.2333 5.43376L18.7333 11.5338H27.3333C28.0444 11.5338 28.6667 11.8004 29.2 12.3338C29.7333 12.8671 30 13.4893 30 14.2004V16.8671C30 17.0226 29.9778 17.1893 29.9333 17.3671C29.8889 17.5449 29.8444 17.7115 29.8 17.8671L25.8 27.2671C25.6 27.7115 25.2667 28.0893 24.8 28.4004C24.3333 28.7115 23.8444 28.8671 23.3333 28.8671H8.66667ZM11.3333 12.6671V26.2004H23.3333L27.3333 16.8671V14.2004H15.3333L17.1333 6.86709L11.3333 12.6671ZM4.66667 28.8671C3.93333 28.8671 3.30578 28.6062 2.784 28.0844C2.26133 27.5618 2 26.9338 2 26.2004V14.2004C2 13.4671 2.26133 12.8391 2.784 12.3164C3.30578 11.7947 3.93333 11.5338 4.66667 11.5338H8.66667V14.2004H4.66667V26.2004H8.66667V28.8671H4.66667ZM11.3333 26.2004V12.6671V26.2004Z" fill="#C8C8C8"/>
</svg>
