<svg width="22" height="29" viewBox="0 0 22 29" fill="none" xmlns="http://www.w3.org/2000/svg">
<path d="M2.99992 28.3333C2.26659 28.3333 1.63903 28.0725 1.11725 27.5507C0.594585 27.028 0.333252 26.4 0.333252 25.6667V12.3333C0.333252 11.6 0.594585 10.972 1.11725 10.4493C1.63903 9.92757 2.26659 9.66668 2.99992 9.66668H4.33325V7.00001C4.33325 5.15557 4.98347 3.58312 6.28392 2.28268C7.58347 0.983121 9.15547 0.333344 10.9999 0.333344C12.8444 0.333344 14.4168 0.983121 15.7173 2.28268C17.0168 3.58312 17.6666 5.15557 17.6666 7.00001V9.66668H18.9999C19.7333 9.66668 20.3613 9.92757 20.8839 10.4493C21.4057 10.972 21.6666 11.6 21.6666 12.3333V25.6667C21.6666 26.4 21.4057 27.028 20.8839 27.5507C20.3613 28.0725 19.7333 28.3333 18.9999 28.3333H2.99992ZM2.99992 25.6667H18.9999V12.3333H2.99992V25.6667ZM10.9999 21.6667C11.7333 21.6667 12.3613 21.4058 12.8839 20.884C13.4057 20.3613 13.6666 19.7333 13.6666 19C13.6666 18.2667 13.4057 17.6387 12.8839 17.116C12.3613 16.5942 11.7333 16.3333 10.9999 16.3333C10.2666 16.3333 9.63903 16.5942 9.11725 17.116C8.59459 17.6387 8.33325 18.2667 8.33325 19C8.33325 19.7333 8.59459 20.3613 9.11725 20.884C9.63903 21.4058 10.2666 21.6667 10.9999 21.6667ZM6.99992 9.66668H14.9999V7.00001C14.9999 5.8889 14.611 4.94445 13.8333 4.16668C13.0555 3.3889 12.111 3.00001 10.9999 3.00001C9.88881 3.00001 8.94436 3.3889 8.16659 4.16668C7.38881 4.94445 6.99992 5.8889 6.99992 7.00001V9.66668ZM2.99992 25.6667V12.3333V25.6667Z" fill="white"/>
</svg>
