<svg width="183" height="209" viewBox="0 0 183 209" fill="none" xmlns="http://www.w3.org/2000/svg">
<g opacity="0.1">
<path d="M-39.2807 250.146C-53.0561 237.119 -64.8041 222.515 -73.4138 205.176C-103.242 145.168 -86.0088 68.5291 -33.7122 28.3644C-12.2159 11.8643 11.905 3.18009 38.2477 0.473502C66.0208 -0.77124 92.2107 4.88799 116.193 19.8104C149.784 40.696 171.739 71.1199 179.793 110.821C194.443 183.19 157.574 248.322 96.2516 272.768C52.037 290.383 9.54432 284.347 -29.9767 257.035C-33.1428 254.835 -36.184 252.476 -39.2807 250.146ZM2.18442 145.37C11.8078 169.845 21.4867 194.306 30.9712 218.839C32.1932 221.98 34.1651 222.124 36.7619 222.11C68.7009 222.11 100.515 222.023 132.398 222.197C136.314 222.197 137.161 220.938 137.161 217.088C137.032 172.615 137.032 128.127 137.161 83.6252C137.161 79.4857 135.773 78.6462 132.176 78.6896C119.012 78.8778 105.792 78.9067 92.6967 78.6896C88.9473 78.6896 87.2671 80.137 85.934 83.5818C79.2684 100.574 72.3808 117.479 65.5764 134.399L47.6488 178.819C45.0798 175.823 44.3439 172.682 43.1913 169.787C34.0818 146.938 24.9907 124.079 15.9182 101.211C13.4603 94.6686 10.919 88.1844 8.59998 81.5699C7.62793 78.791 5.6005 79.0949 3.57307 79.0949C-10.0218 79.0949 -23.6028 79.0949 -37.1838 79.0949C-40.4332 79.0949 -41.9747 79.7607 -41.9608 83.6686C-41.8497 128.402 -41.8497 173.141 -41.9608 217.884C-41.9608 222.139 -40.2805 222.906 -36.8227 222.805C-30.2405 222.646 -23.6167 222.428 -17.0623 222.877C-12.0076 223.21 -10.4106 221.69 -10.4523 216.205C-10.7022 185.81 -10.5911 155.415 -10.5356 125.02C-10.5356 122.762 -11.2993 120.316 -9.38297 117.783L2.18442 145.37ZM48.4821 112.081C55.1091 112.154 61.4928 109.481 66.2295 104.65C70.9663 99.8187 73.6684 93.2245 73.7417 86.3173C73.6172 79.4162 70.9325 72.8337 66.2511 67.9517C61.5698 63.0697 55.2559 60.2678 48.6348 60.1343C42.0071 60.183 35.6621 62.939 30.9625 67.8102C26.2629 72.6814 23.5837 79.2794 23.5003 86.187C23.4816 89.6051 24.1161 92.9928 25.3667 96.1526C26.6173 99.3124 28.4589 102.181 30.7842 104.591C33.1096 107.001 35.8721 108.905 38.9106 110.191C41.9491 111.477 45.2029 112.119 48.4821 112.081Z" fill="#21BEF1"/>
<path d="M107.305 118.174C107.305 140.334 107.305 162.493 107.305 184.652C107.305 187.547 106.055 188.3 103.569 188.271C96.1678 188.198 88.7802 188.271 81.3509 188.271C79.3235 188.271 77.4766 188.271 78.7958 185.13C88.2248 162.84 95.7095 139.74 107.305 118.174Z" fill="#21BEF1"/>
</g>
</svg>
