<svg width="487" height="631" viewBox="0 0 487 631" fill="none" xmlns="http://www.w3.org/2000/svg">
<g opacity="0.2">
<path d="M-157.696 692.81C-197.65 656.687 -231.723 616.19 -256.694 568.107C-343.207 401.703 -293.225 189.182 -141.545 77.8043C-79.198 32.0492 -9.23856 7.96751 67.165 0.462055C147.717 -2.98965 223.678 12.7036 293.234 54.0839C390.662 112 454.338 196.366 477.698 306.46C520.19 507.14 413.257 687.753 235.398 755.542C107.159 804.388 -16.0855 787.651 -130.711 711.915C-139.894 705.814 -148.714 699.272 -157.696 692.81ZM-37.4319 402.265C-9.52063 470.135 18.5519 537.965 46.0604 605.995C49.6047 614.705 55.3239 615.106 62.8555 615.066C155.49 615.066 247.763 614.825 340.236 615.307C351.594 615.307 354.051 611.815 354.051 601.139C353.675 477.814 353.675 354.449 354.051 231.044C354.051 219.565 350.024 217.237 339.592 217.358C301.41 217.879 263.067 217.96 225.087 217.358C214.213 217.358 209.339 221.371 205.473 230.924C186.14 278.043 166.163 324.922 146.428 371.841L94.4317 495.019C86.9807 486.711 84.8462 478.001 81.5033 469.974C55.0822 406.613 28.7148 343.224 2.40112 279.809C-4.72772 261.668 -12.0983 243.687 -18.8244 225.345C-21.6437 217.639 -27.524 218.481 -33.4043 218.481C-72.8345 218.481 -112.224 218.481 -151.614 218.481C-161.039 218.481 -165.51 220.328 -165.469 231.164C-165.147 355.212 -165.147 479.272 -165.469 603.346C-165.469 615.146 -160.596 617.274 -150.567 616.993C-131.476 616.551 -112.265 615.949 -93.2544 617.193C-78.5939 618.117 -73.9621 613.902 -74.083 598.691C-74.8079 514.405 -74.4857 430.119 -74.3246 345.833C-74.3246 339.572 -76.5397 332.789 -70.9816 325.765L-37.4319 402.265ZM96.8484 309.952C116.069 310.155 134.584 302.743 148.323 289.346C162.061 275.949 169.898 257.663 170.111 238.509C169.75 219.372 161.963 201.119 148.385 187.581C134.808 174.043 116.495 166.273 97.2914 165.903C78.0687 166.038 59.6656 173.68 46.0351 187.189C32.4046 200.697 24.634 218.993 24.3919 238.148C24.3379 247.626 26.1781 257.021 29.8053 265.783C33.4324 274.545 38.7738 282.5 45.5182 289.183C52.2625 295.867 60.2748 301.145 69.0876 304.711C77.9005 308.277 87.3375 310.058 96.8484 309.952Z" fill="#21BEF1"/>
<path d="M267.456 326.849C267.456 388.298 267.456 449.746 267.456 511.195C267.456 519.222 263.831 521.309 256.622 521.229C235.155 521.028 213.728 521.229 192.18 521.229C186.3 521.229 180.943 521.229 184.77 512.519C212.117 450.709 233.826 386.652 267.456 326.849Z" fill="#21BEF1"/>
</g>
</svg>
