<svg width="132" height="50" viewBox="0 0 132 50" fill="none" xmlns="http://www.w3.org/2000/svg">
<g clip-path="url(#clip0_5_611)">
<path d="M55.7947 13.0803C56.8592 13.0983 57.9288 13.1854 58.9881 13.1111C59.8418 13.0547 60.2172 13.3904 60.4332 14.1591C60.6671 14.9918 61.0065 15.7938 61.3074 16.6265C61.4154 16.5599 61.4925 16.542 61.5131 16.4958C62.089 15.2147 62.5261 13.7952 64.0483 13.3263C66.0652 12.6807 68.2434 12.744 70.2191 13.5057C71.8261 14.1257 72.4329 15.5991 72.4741 17.1697C72.5666 20.8773 72.5049 24.6003 72.5306 28.3028C72.5306 28.8536 72.3326 29.0151 71.7978 29.0099C69.5506 28.9869 67.3034 28.9818 65.0562 29.0099C64.4545 29.0099 64.2077 28.8152 64.2848 28.2259C64.2874 28.1883 64.2874 28.1507 64.2848 28.1131C64.2 25.269 64.2 25.2383 67.0488 25.228C67.8536 25.228 68.0953 24.9718 68.0773 24.2031C68.0259 22.4249 68.0773 20.6442 68.0387 18.8659C68.0156 17.941 67.887 16.9135 66.7094 16.7828C64.8505 16.5778 63.9634 16.583 63.2589 18.0025C62.647 19.2375 62.5467 20.6211 62.2304 21.9355C61.7162 24.0289 61.2714 26.1351 60.8137 28.2387C60.7057 28.7306 60.5566 29.0484 59.9369 29.0253C58.7233 28.9766 57.5046 29.0099 56.1135 29.0099C56.5404 27.1087 56.8463 25.2613 57.3837 23.4831C57.9519 21.5922 58.0059 19.8063 57.1729 17.9871C56.7512 17.0672 56.471 16.0808 56.1238 15.1225C56.0518 14.4281 55.3473 13.8388 55.7947 13.0803Z" fill="#FCFDFD"/>
<path d="M14.6405 22.8067C14.6405 24.5465 14.5942 26.2888 14.6585 28.026C14.6893 28.8536 14.4014 29.0714 13.63 29.0151C12.7948 28.9497 11.9557 28.9497 11.1205 29.0151C10.38 29.074 10.2412 28.7588 10.2489 28.108C10.2797 25.269 10.2617 22.4326 10.2617 19.5962C10.2617 19.34 10.2617 19.0658 10.2617 18.8019C10.1512 17.0083 10.0638 16.934 8.23564 16.934C6.02955 16.934 3.8209 16.8981 1.61481 16.9519C0.794602 16.9699 0.606907 16.6803 0.604336 15.9142C0.581195 13.1239 0.555486 13.1239 3.37094 13.1239C5.61817 13.1239 7.86282 13.1239 10.1075 13.1239C12.7944 13.1239 14.3808 14.5357 14.5556 17.2363C14.6765 19.0812 14.5788 20.9414 14.5788 22.7939L14.6405 22.8067Z" fill="#FCFDFD"/>
<path d="M40.9333 22.7144C40.9333 24.7105 40.9025 26.3759 40.9462 28.0414C40.9667 28.7486 40.8073 29.0663 40.0154 29.0151C38.8815 28.9331 37.3979 29.3712 36.6986 28.8075C35.9529 28.2105 36.48 26.6757 36.4594 25.5534C36.4209 23.168 36.4234 20.7851 36.4414 18.4022C36.4414 17.3183 36.0506 16.8443 34.8782 16.9109C33.248 17.0032 31.6076 16.9109 29.9723 16.9468C29.3244 16.9596 29.1367 16.7393 29.111 16.1038C28.9875 13.1316 28.9695 13.1111 31.9393 13.1418C33.8008 13.1598 35.6726 12.9599 37.5213 13.2494C39.298 13.5313 40.4808 14.8099 40.7482 16.5804C41.0644 18.7327 40.8742 20.8927 40.9333 22.7144Z" fill="#FCFDFD"/>
<path d="M50.9765 21.1259C50.9765 23.4755 50.9559 25.8225 50.9893 28.1695C50.9893 28.805 50.8171 29.0484 50.1563 29.0125C48.9812 28.9485 47.4591 29.384 46.7212 28.805C45.9344 28.19 46.4795 26.6091 46.464 25.451C46.4306 21.7024 46.464 17.9512 46.4332 14.2026C46.4332 13.3596 46.6466 13.0368 47.5157 13.1188C48.6084 13.2238 50.0149 12.6832 50.7245 13.3186C51.4342 13.9541 50.9302 15.3889 50.9611 16.4677C51.0151 18.0204 50.9765 19.5731 50.9765 21.1259Z" fill="#FCFDFD"/>
<path d="M5.2735 24.2006C5.2735 25.72 5.25036 26.9704 5.2735 28.2182C5.28893 28.7896 5.12437 29.0356 4.50214 29.0099C3.47367 28.9689 2.44519 28.9818 1.41671 29.0099C0.923041 29.0228 0.743061 28.828 0.745633 28.3489C0.755917 25.8122 0.755917 23.2756 0.745633 20.739C0.745633 20.3085 0.902474 20.101 1.34729 20.1445C1.42443 20.1445 1.49899 20.1445 1.57612 20.1445L5.10123 20.2111C5.48691 21.6178 5.1398 23.0527 5.2735 24.2006Z" fill="#FCFDFD"/>
<path d="M24.681 17.7719C24.681 18.9813 24.6553 20.1906 24.681 21.4C24.699 22.0073 24.5525 22.3019 23.8686 22.2661C22.9224 22.22 21.9684 22.2276 21.0197 22.2661C20.4231 22.2891 20.2303 22.0662 20.2355 21.4795C20.2577 18.9855 20.2577 16.4924 20.2355 14.0002C20.2355 13.4006 20.3769 13.0906 21.0608 13.1239C22.007 13.17 22.9609 13.1649 23.9097 13.1239C24.5216 13.0983 24.681 13.3468 24.681 13.9182C24.6605 15.2019 24.681 16.4882 24.681 17.7719Z" fill="#FCFDFD"/>
<path d="M25.1154 34.0807C25.3519 33.6963 24.6011 32.9046 25.3725 32.7995C25.9742 32.7252 25.7119 33.5682 25.8276 34.0038C25.8944 34.26 25.7145 34.6777 26.2184 34.6572C26.5887 34.6572 26.6967 34.3779 26.7738 34.0525C26.8766 33.6143 26.4678 33.0276 27.1003 32.7534C27.3215 32.656 27.4526 32.8713 27.4423 33.0737C27.4089 33.7655 27.666 34.5162 26.9281 35.0518C26.6272 35.2721 25.8147 34.875 26.0307 35.7128C26.1516 36.1868 26.5887 36.2765 27.0386 36.274C27.666 36.274 28.1931 36.0741 28.3242 35.4053C28.4554 34.7366 28.5222 33.9859 28.6019 33.271C28.6353 32.984 28.7099 32.7098 29.0544 32.7585C29.3476 32.7918 29.3347 33.0737 29.3116 33.2992C29.2551 34.1286 29.1408 34.953 28.9696 35.7666C28.6791 36.8479 27.7637 36.9965 26.7841 36.9683C25.8045 36.9401 25.3365 36.4149 25.2414 35.4925C25.1874 35.0441 25.1565 34.5906 25.1154 34.0807Z" fill="#FCFDFD"/>
<path d="M1.06192 33.6553C1.59159 32.9225 2.14954 32.5254 2.96718 32.8277C3.78482 33.1301 3.8131 33.8039 3.80024 34.5111C3.80024 35.0389 3.77196 35.5693 3.80024 36.0946C3.83881 36.6839 3.60226 36.9581 3.01346 36.8786C2.62521 36.8274 1.98498 37.1041 1.91042 36.6224C1.805 36.0382 2.47608 36.3867 2.75377 36.2253C3.52513 35.7718 3.03917 35.0184 3.1343 34.4061C3.20372 33.9807 3.03917 33.5451 2.52236 33.4708C1.81271 33.3709 1.64815 33.9167 1.49388 34.4343C1.2959 35.0825 1.0902 35.7154 0.91022 36.3816C0.833085 36.6634 0.71481 36.9171 0.395981 36.8556C-0.0308369 36.771 0.16972 36.4098 0.246856 36.215C0.645391 35.2183 0.673674 34.2549 0.110583 33.3094C0.0103059 33.1454 -0.0822571 32.9353 0.110583 32.797C0.157828 32.7655 0.211573 32.7451 0.267822 32.7373C0.324071 32.7294 0.381376 32.7342 0.435482 32.7515C0.489587 32.7687 0.539094 32.7979 0.580331 32.8368C0.621568 32.8757 0.65347 32.9234 0.673667 32.9763C0.794513 33.1762 0.902506 33.3658 1.06192 33.6553Z" fill="#FCFDFD"/>
<path d="M16.1087 34.752V34.4112C16.1087 32.6612 16.1087 32.6612 17.9086 32.7227C19.171 32.7662 19.423 33.0199 19.4513 34.26C19.4513 34.4112 19.4513 34.5598 19.4513 34.711C19.4513 36.8966 19.4513 36.8582 17.2452 36.8966C16.3607 36.912 15.9596 36.6788 16.0959 35.7615C16.1229 35.4257 16.1272 35.0884 16.1087 34.752V34.752ZM18.7956 35.1235C18.7956 34.8673 18.7956 34.7545 18.7956 34.6418C18.8625 33.8731 18.7365 33.4068 17.7311 33.3991C16.6461 33.3991 16.7027 33.9756 16.7309 34.6802C16.7489 34.943 16.7489 35.2066 16.7309 35.4694C16.6744 36.0485 16.9212 36.2227 17.5023 36.2663C18.5102 36.3431 19.0476 36.0869 18.7956 35.1235Z" fill="#FCFDFD"/>
<path d="M47.1966 35.2362C46.9575 35.6846 47.6491 36.7044 46.8058 36.748C46.2401 36.7787 46.6078 35.7231 46.5178 35.1671C46.397 34.4112 46.9344 33.2735 45.3711 33.4298C44.8748 33.4785 44.7128 33.6681 44.7231 34.1293C44.745 34.7325 44.7347 35.3363 44.6923 35.9383C44.6938 36.0718 44.668 36.2042 44.6164 36.3274C44.5648 36.4506 44.4886 36.562 44.3923 36.6548C44.296 36.7476 44.1818 36.8199 44.0565 36.8672C43.9312 36.9145 43.7976 36.9358 43.6638 36.9299C43.2524 36.9299 43.0544 36.4687 43.3141 36.3662C44.4223 35.9281 43.8026 35.0159 44.0135 34.3446C44.1935 33.7681 43.363 32.697 44.8183 32.7073C46.9806 32.7073 47.1478 32.82 47.1992 34.4624C47.2018 34.6879 47.1966 34.916 47.1966 35.2362Z" fill="#FCFDFD"/>
<path d="M51.6783 32.7047C52.5499 33.0096 52.8122 33.6707 52.8173 34.5291C52.8173 35.5284 52.8173 36.4892 51.6783 36.9453C51.3054 36.9248 50.9301 36.9299 50.5624 36.8787C50.1947 36.8274 49.5647 37.1067 49.5339 36.5481C49.5082 35.946 50.1484 36.2227 50.5084 36.1715C50.8015 36.1279 51.1049 36.1715 51.4006 36.1407C51.5525 36.1503 51.7025 36.1031 51.8214 36.0083C51.9402 35.9136 52.0194 35.7781 52.0434 35.6283C52.0798 35.1166 52.0858 34.6033 52.0614 34.0909C52.0048 33.5118 51.5188 33.4452 51.0535 33.4504C50.7398 33.4504 50.3361 33.3274 50.2178 33.7886C50.0995 34.2498 50.421 34.4189 50.8015 34.5572C50.8992 34.5931 50.9018 34.8827 50.9455 35.0543C50.4852 35.0723 49.8784 35.3644 49.6445 34.7981C49.4245 34.1974 49.4245 33.5386 49.6445 32.9379C49.7679 32.5715 50.1587 32.7457 50.4364 32.7278C50.8529 32.6971 51.2669 32.7099 51.6783 32.7047Z" fill="#FCFDFD"/>
<path d="M10.1947 34.3522C10.1947 36.4764 9.51076 37.1016 7.44352 36.8838C7.1864 36.8556 6.87272 36.935 6.85986 36.525C6.85986 36.1971 7.09127 36.1791 7.32525 36.1689C7.90377 36.1433 7.74692 35.7871 7.66464 35.4515C7.49751 34.752 7.34068 34.0525 7.17355 33.353C7.12213 33.1377 6.99099 32.8815 7.27896 32.7713C7.61322 32.6432 7.76749 32.8969 7.83177 33.1736C8.00919 33.909 8.14032 34.6546 8.34601 35.3797C8.42315 35.6513 8.30487 36.1484 8.86025 36.092C9.03292 36.0648 9.19037 35.9776 9.30472 35.8458C9.41907 35.7141 9.48295 35.5462 9.48505 35.372C9.54933 34.734 9.52876 34.0909 9.56218 33.4452C9.57504 33.2018 9.45677 32.8175 9.80645 32.7841C10.2616 32.7406 10.1793 33.1582 10.1921 33.4452C10.205 33.7322 10.1947 34.0499 10.1947 34.3522Z" fill="#FCFDFD"/>
<path d="M37.9609 34.7622C37.9609 34.6879 37.9609 34.6111 37.9609 34.5367C37.9609 32.756 38.7966 32.2077 40.5321 32.8226C40.8921 32.9507 41.1518 33.1557 41.1698 33.5298C41.2135 34.5086 41.2264 35.4873 41.2366 36.4661C41.2432 36.5129 41.2393 36.5606 41.2251 36.6056C41.2109 36.6507 41.1868 36.692 41.1545 36.7266C41.1222 36.7613 41.0826 36.7883 41.0386 36.8057C40.9945 36.8231 40.9471 36.8305 40.8998 36.8274C40.6427 36.812 40.6427 36.584 40.6427 36.4046C40.6427 35.7641 40.617 35.1235 40.6427 34.4804C40.6684 33.7117 40.3599 33.4247 39.5628 33.417C38.7657 33.4094 38.6166 33.7809 38.6603 34.4419C38.704 35.103 38.6603 35.7231 38.6603 36.3636C38.6603 36.6045 38.6114 36.8428 38.3055 36.8274C37.9995 36.812 37.9712 36.5712 37.9712 36.3355L37.9609 34.7622Z" fill="#FCFDFD"/>
<path d="M12.1719 36.871C11.7965 36.7326 10.8863 37.2041 10.8451 36.543C10.804 35.8819 11.6834 36.2022 12.1307 36.1868C13.0307 36.1561 12.9715 35.536 12.9304 34.9954C12.8815 34.3933 13.1875 33.5631 12.1127 33.4273C11.7271 33.3786 10.984 33.7604 11.0071 33.0891C11.0328 32.3537 11.8042 32.7432 12.2104 32.7509C13.3829 32.7713 13.7532 33.4145 13.6477 34.9313C13.6092 35.4105 13.2389 35.9127 13.8586 36.3534C14.0849 36.5148 13.91 36.8658 13.5449 36.8658C13.1361 36.8812 12.717 36.871 12.1719 36.871Z" fill="#FCFDFD"/>
<path d="M24.4213 33.4247C24.2516 34.2344 24.0999 35.0466 23.9071 35.8512C23.8541 36.093 23.7307 36.3139 23.5523 36.4862C23.3739 36.6585 23.1485 36.7745 22.9043 36.8197C22.6703 36.8786 22.4415 36.9171 22.3232 36.6506C22.2049 36.3841 22.3978 36.2483 22.6189 36.151C23.6911 35.6718 23.4365 34.6315 23.5317 33.8014C23.596 33.2428 22.9712 33.4708 22.6472 33.4503C22.4205 33.4376 22.2006 33.3683 22.0077 33.249C21.8148 33.1297 21.6551 32.964 21.543 32.7672C21.431 32.5704 21.3703 32.3488 21.3664 32.1225C21.3626 31.8963 21.4157 31.6727 21.521 31.4723C21.5568 31.408 21.6123 31.3569 21.6795 31.3265C21.7466 31.2961 21.8217 31.2879 21.8938 31.3032C21.9415 31.3044 21.9882 31.3167 22.0302 31.3391C22.0723 31.3615 22.1085 31.3934 22.1359 31.4322C22.1634 31.4711 22.1814 31.5158 22.1885 31.5628C22.1955 31.6097 22.1915 31.6577 22.1767 31.7029C21.9684 32.8815 22.7809 32.7278 23.4957 32.7278C23.9611 32.7329 24.591 32.5715 24.4213 33.4247Z" fill="#FCFDFD"/>
<path d="M34.0964 35.1594C33.8933 35.6462 34.5053 36.7224 33.6979 36.7454C33.068 36.7634 33.4228 35.6616 33.4279 35.0876C33.4434 34.0371 33.4279 33.1762 31.9855 33.4196C31.7284 33.4606 31.3967 33.4427 31.4095 33.0635C31.4224 32.6842 31.7489 32.7406 32.0086 32.7124C33.7648 32.5331 34.0964 32.9072 34.0964 35.1594Z" fill="#FCFDFD"/>
<path d="M42.7845 34.734C42.7845 35.2977 42.7974 35.8614 42.7845 36.4226C42.7845 36.6045 42.7099 36.8197 42.4837 36.8351C42.188 36.8556 42.1108 36.6455 42.1108 36.3918V33.2377C42.1108 32.9943 42.1674 32.7585 42.4605 32.7688C42.7536 32.779 42.7871 33.0532 42.7948 33.2684C42.8153 33.7553 42.7948 34.2446 42.7948 34.734H42.7845Z" fill="#FCFDFD"/>
<path d="M30.1808 34.7417C30.1808 34.2549 30.1808 33.7681 30.1808 33.2812C30.1808 33.0532 30.1808 32.7944 30.4894 32.7688C30.7979 32.7432 30.8416 32.9891 30.8442 33.2274C30.8442 34.2779 30.8442 35.3276 30.8442 36.3764C30.8442 36.6173 30.7825 36.8453 30.4765 36.8197C30.1705 36.7941 30.1834 36.5327 30.1808 36.3073C30.1783 35.7923 30.1808 35.267 30.1808 34.7417Z" fill="#FCFDFD"/>
<path d="M20.2894 33.9756C20.2786 33.8383 20.2786 33.7004 20.2894 33.5631C20.3485 33.271 20.1197 32.7662 20.6468 32.7944C21.1739 32.8226 20.9373 33.3069 20.9836 33.6066C21.0042 33.7176 21.0042 33.8314 20.9836 33.9423C20.8833 34.3395 21.2407 35.0697 20.6751 35.0748C19.9243 35.0723 20.4848 34.2856 20.2894 33.9756Z" fill="#FCFDFD"/>
<path d="M35.6264 34.032C35.4773 34.3446 35.9324 35.0774 35.2716 35.0774C34.6108 35.0774 35.0325 34.3625 34.9271 33.9756C34.8962 33.8269 34.8962 33.6734 34.9271 33.5247C34.9734 33.2274 34.7625 32.7304 35.323 32.7739C35.7421 32.8072 35.6033 33.2326 35.6264 33.5144C35.6367 33.6656 35.6264 33.8193 35.6264 34.032Z" fill="#FCFDFD"/>
<path d="M48.0195 33.8782C48.1455 33.5554 47.7624 32.8405 48.3281 32.8175C48.9786 32.7944 48.5723 33.517 48.6855 33.8962C48.7125 34.0056 48.7125 34.1199 48.6855 34.2293C48.6135 34.547 48.8989 35.1056 48.3152 35.0902C47.8344 35.0902 48.0838 34.5777 48.0195 34.2754C48.0075 34.1433 48.0075 34.0104 48.0195 33.8782Z" fill="#FCFDFD"/>
<path d="M5.58447 33.8629C5.64875 33.2582 5.69503 32.8534 5.72846 32.446C5.7516 32.1744 5.74903 31.8618 6.13728 31.9207C6.52553 31.9796 6.40726 32.346 6.36869 32.5638C6.29156 33.0122 6.26841 33.5272 5.58447 33.8629Z" fill="#FCFDFD"/>
<path d="M4.3916 33.909C4.47131 33.2069 4.53044 32.7303 4.57929 32.2512C4.60243 32.0257 4.71557 31.9053 4.94441 31.9232C5.17324 31.9412 5.25295 32.1385 5.21953 32.3281C5.12439 32.8533 5.14496 33.4529 4.3916 33.909Z" fill="#FCFDFD"/>
<path d="M90.8455 44.2272C88.2948 41.9212 86.1196 39.3359 84.5255 36.2663C79.0025 25.6431 82.1934 12.0759 91.8765 4.96567C95.8567 2.04469 100.323 0.507328 105.2 0.028185C110.343 -0.19217 115.192 0.809675 119.633 3.45137C125.852 7.14871 129.917 12.5346 131.409 19.5629C134.121 32.3742 127.295 43.9044 115.94 48.232C107.754 51.3503 99.8858 50.2818 92.5682 45.4469C91.9819 45.0574 91.4188 44.6398 90.8455 44.2272ZM98.523 25.679C100.305 30.0118 102.097 34.342 103.853 38.6851C104.079 39.2411 104.445 39.2667 104.925 39.2641C110.839 39.2641 116.73 39.2487 122.633 39.2795C123.358 39.2795 123.515 39.0566 123.515 38.375C123.491 30.502 123.491 22.6265 123.515 14.7484C123.515 14.0156 123.258 13.867 122.592 13.8747C120.155 13.908 117.707 13.9131 115.282 13.8747C114.588 13.8747 114.277 14.1309 114.03 14.7407C112.796 17.7488 111.52 20.7415 110.261 23.7368L106.941 31.6004C106.465 31.07 106.329 30.514 106.116 30.0015C104.429 25.9566 102.746 21.9099 101.066 17.8615C100.611 16.7034 100.14 15.5555 99.7109 14.3845C99.531 13.8926 99.1556 13.9464 98.7802 13.9464C96.263 13.9464 93.7483 13.9464 91.2337 13.9464C90.6321 13.9464 90.3467 14.0643 90.3492 14.7561C90.3698 22.6752 90.3698 30.5951 90.3492 38.5159C90.3492 39.2692 90.6603 39.405 91.3006 39.3871C92.5193 39.3589 93.7458 39.3205 94.9594 39.3999C95.8953 39.4588 96.191 39.1898 96.1833 38.2187C96.137 32.838 96.1576 27.4572 96.1678 22.0765C96.1678 21.6767 96.0264 21.2437 96.3813 20.7953L98.523 25.679ZM107.095 19.7858C108.322 19.7988 109.504 19.3256 110.381 18.4704C111.259 17.6151 111.759 16.4477 111.772 15.225C111.749 14.0033 111.252 12.838 110.385 11.9737C109.519 11.1095 108.35 10.6135 107.124 10.5898C105.897 10.5985 104.722 11.0863 103.852 11.9487C102.981 12.811 102.485 13.9791 102.47 15.2019C102.466 15.807 102.584 16.4067 102.815 16.9661C103.047 17.5255 103.388 18.0333 103.819 18.46C104.249 18.8866 104.761 19.2236 105.323 19.4512C105.886 19.6789 106.488 19.7926 107.095 19.7858V19.7858Z" fill="#FCFDFD"/>
<path d="M72.5512 35.1389C72.5512 35.4797 72.5666 35.823 72.5512 36.1638C72.5332 36.438 72.6617 36.8658 72.1835 36.8351C71.7053 36.8044 71.8647 36.3918 71.857 36.1125C71.83 35.5825 71.83 35.0514 71.857 34.5214C71.9135 33.7886 71.7284 33.4273 70.8722 33.4145C69.9723 33.3991 69.8797 33.8168 69.9234 34.5188C69.962 35.1619 69.9234 35.7999 69.9234 36.4508C69.9234 36.6609 69.8283 36.8223 69.5969 36.8351C69.3655 36.8479 69.2832 36.6583 69.2832 36.461C69.2832 35.3618 69.2832 34.2652 69.2832 33.1659C69.2832 33.0404 69.3861 32.8123 69.4632 32.8021C70.2937 32.6945 71.1396 32.5971 71.9444 32.8892C72.6386 33.1454 72.5152 33.7911 72.5435 34.3471C72.5743 34.6085 72.5486 34.875 72.5512 35.1389Z" fill="#FCFDFD"/>
<path d="M56.2065 33.1096C56.0008 34.1345 55.8388 35.0287 55.6434 35.9101C55.6046 36.0975 55.5173 36.2716 55.3901 36.415C55.2629 36.5584 55.1002 36.6661 54.9183 36.7275C54.62 36.8376 54.2369 37.1041 54.0338 36.6557C53.8307 36.2073 54.3038 36.2406 54.548 36.0895C55.4274 35.5181 55.2217 34.5367 55.2731 33.7373C55.3066 33.2505 54.5943 33.5349 54.2241 33.4478C53.913 33.3786 53.4039 33.6271 53.3242 33.2146C53.2526 32.6189 53.2526 32.0168 53.3242 31.421C53.3242 31.3851 53.5813 31.3313 53.7227 31.3365C53.9207 31.3365 53.9592 31.5209 53.9335 31.6644C53.7175 32.8841 54.5429 32.7508 55.3117 32.7483C55.6691 32.7329 56.2116 32.5484 56.2065 33.1096Z" fill="#FCFDFD"/>
<path d="M66.9177 36.8735C66.5243 36.7326 65.5755 37.1964 65.5473 36.5737C65.5138 35.8051 66.4421 36.2586 66.9383 36.1766C67.9282 36.0101 67.5425 35.267 67.5734 34.7443C67.6042 34.1729 67.7019 33.4939 66.7557 33.4222C66.3752 33.394 65.6218 33.7604 65.6604 33.0737C65.699 32.387 66.4626 32.7739 66.8869 32.7457C67.7534 32.6868 68.139 33.1787 68.3036 34.0269C68.4682 34.875 67.7894 35.7154 68.5607 36.4764C68.715 36.6276 68.4553 36.8735 68.1802 36.8735C67.8073 36.8761 67.432 36.8735 66.9177 36.8735Z" fill="#FCFDFD"/>
<path d="M61.5827 35.1927C61.377 35.6616 61.9941 36.666 61.2278 36.7428C60.729 36.7915 60.9887 35.7179 60.9707 35.1491C60.9219 33.5093 60.9502 33.5169 59.2943 33.4324C58.9935 33.417 58.5049 33.6015 58.5409 33.0352C58.5718 32.5843 58.9961 32.7534 59.2712 32.7278C59.4989 32.7137 59.7273 32.7137 59.9551 32.7278C61.341 32.756 61.5467 32.9533 61.5827 34.3061C61.5904 34.5675 61.5827 34.834 61.5827 35.1927Z" fill="#FCFDFD"/>
<path d="M64.8867 35.1363C64.7119 35.6308 65.1927 36.7531 64.6013 36.7275C63.8299 36.6967 64.2491 35.6231 64.2542 35.0338C64.2542 33.9884 64.1719 33.2095 62.8169 33.4247C62.5881 33.4606 62.2281 33.5246 62.2075 33.1198C62.1844 32.633 62.5752 32.7457 62.858 32.7252C64.6039 32.5971 64.8867 32.9123 64.8867 35.1363Z" fill="#FCFDFD"/>
<path d="M59.1838 35.7538V36.315C59.1838 36.5994 59.1452 36.8812 58.775 36.8274C58.469 36.7941 58.5178 36.5071 58.5178 36.2945C58.4934 35.9191 58.4934 35.5425 58.5178 35.1671C58.5435 34.9108 58.3456 34.4804 58.8444 34.4906C59.3432 34.5009 59.1555 34.9108 59.1863 35.1799C59.1962 35.3711 59.1953 35.5627 59.1838 35.7538V35.7538Z" fill="#FCFDFD"/>
<path d="M101.066 17.8692C102.747 21.9159 104.431 25.9625 106.116 30.0092C106.329 30.5217 106.465 31.0777 106.941 31.6081L110.26 23.7445C111.52 20.7492 112.796 17.7565 114.03 14.7484C114.287 14.1437 114.588 13.8695 115.282 13.8823C117.717 13.9208 120.154 13.9156 122.592 13.8823C123.258 13.8823 123.518 14.0233 123.515 14.7561C123.489 22.6325 123.489 30.508 123.515 38.3827C123.515 39.0642 123.358 39.2897 122.633 39.2872C116.719 39.2564 110.829 39.2667 104.925 39.2718C104.444 39.2718 104.079 39.2487 103.853 38.6927C102.097 34.3369 100.305 30.0195 98.5229 25.6867C99.2532 25.1307 99.5797 24.385 99.7623 23.4883C100.097 21.8305 100.667 20.2188 100.652 18.4995C100.652 18.3658 100.692 18.2352 100.765 18.1233C100.839 18.0114 100.943 17.9232 101.066 17.8692V17.8692ZM117.987 20.8645C115.84 24.6823 114.454 28.7716 112.719 32.7124C112.461 33.2684 112.816 33.2684 113.192 33.2684C114.562 33.2684 115.93 33.2684 117.306 33.2684C117.766 33.2684 118 33.1429 117.997 32.6278C117.979 28.7101 117.987 24.7873 117.987 20.8645V20.8645Z" fill="#1794B1"/>
<path d="M101.066 17.8692C100.942 17.9235 100.838 18.0126 100.764 18.1254C100.69 18.2383 100.652 18.3701 100.652 18.5047C100.667 20.2239 100.097 21.8356 99.7624 23.4934C99.5799 24.3902 99.2482 25.1358 98.5231 25.6918L96.3787 20.8107C96.0239 21.254 96.1653 21.687 96.1653 22.0918C96.1653 27.4726 96.1345 32.8533 96.1807 38.2341C96.1807 39.2052 95.8928 39.4742 94.9568 39.4153C93.7432 39.3358 92.5168 39.3743 91.298 39.4025C90.6578 39.4204 90.3441 39.2846 90.3467 38.5313C90.3724 30.6122 90.3724 22.6922 90.3467 14.7714C90.3467 14.0796 90.6295 13.9566 91.2312 13.9618C93.7458 13.9823 96.2604 13.9618 98.7776 13.9618C99.153 13.9618 99.5284 13.908 99.7084 14.3999C100.14 15.5581 100.601 16.7111 101.066 17.8692Z" fill="#1895BA"/>
<path d="M107.096 19.7858C106.487 19.793 105.884 19.6792 105.32 19.4511C104.757 19.223 104.244 18.8851 103.813 18.4573C103.382 18.0295 103.041 17.5203 102.81 16.9596C102.579 16.3989 102.463 15.7978 102.467 15.1917C102.483 13.9688 102.979 12.8008 103.849 11.9384C104.719 11.0761 105.894 10.5882 107.121 10.5796C108.347 10.6032 109.516 11.0992 110.383 11.9635C111.25 12.8277 111.747 13.993 111.77 15.2147C111.765 15.8208 111.639 16.4199 111.402 16.9778C111.164 17.5356 110.818 18.0413 110.384 18.4658C109.949 18.8904 109.436 19.2254 108.871 19.4519C108.307 19.6784 107.704 19.7919 107.096 19.7858Z" fill="#1895BA"/>
<path d="M117.987 20.8645C117.987 24.7873 117.987 28.7102 117.987 32.633C117.987 33.1454 117.755 33.2787 117.295 33.2735C115.925 33.2607 114.557 33.2735 113.181 33.2735C112.806 33.2735 112.464 33.2735 112.708 32.7175C114.454 28.7716 115.84 24.6823 117.987 20.8645Z" fill="#FCFDFD"/>
</g>
<defs>
<clipPath id="clip0_5_611">
<rect width="132" height="50" fill="white"/>
</clipPath>
</defs>
</svg>
