<svg width="12" height="12" viewBox="0 0 12 12" fill="none" xmlns="http://www.w3.org/2000/svg">
<path d="M10.992 12C10.728 12 10.476 11.892 10.284 11.712L7.68 9.096C7.668 9.096 7.668 9.084 7.656 9.072L7.644 9.06C6.84 9.588 5.904 9.864 4.944 9.864C2.22 9.876 0 7.668 0 4.944C0 2.22 2.208 0 4.932 0C7.656 0 9.864 2.208 9.876 4.932C9.876 5.892 9.6 6.84 9.06 7.644L9.072 7.656C9.084 7.668 9.096 7.68 9.096 7.68L11.7 10.284C12.096 10.68 12.096 11.316 11.7 11.7C11.52 11.892 11.268 12 10.992 12ZM4.932 1.704C3.156 1.716 1.716 3.156 1.716 4.944C1.728 6.732 3.18 8.16 4.956 8.16C6.732 8.16 8.172 6.708 8.172 4.92C8.172 3.612 7.38 2.448 6.168 1.944C5.772 1.788 5.352 1.704 4.932 1.704Z" fill="#FCFDFD"/>
</svg>
