<svg width="22" height="19" viewBox="0 0 22 19" fill="none" xmlns="http://www.w3.org/2000/svg">
<path d="M14.9634 7.25H20.1467C20.6364 7.25 21.0333 7.63279 21.0333 8.105V12.6576C21.0333 14.3931 19.5744 15.8 17.7746 15.8H17.7592C15.9594 15.8002 14.5003 14.3936 14.5 12.6581V7.69685C14.5 7.45006 14.7075 7.25 14.9634 7.25Z" fill="#5059C9"/>
<path d="M18.4667 6.35005C19.6265 6.35005 20.5667 5.44342 20.5667 4.32505C20.5667 3.20667 19.6265 2.30005 18.4667 2.30005C17.3069 2.30005 16.3667 3.20667 16.3667 4.32505C16.3667 5.44342 17.3069 6.35005 18.4667 6.35005Z" fill="#5059C9"/>
<path d="M11.9332 6.35C13.6085 6.35 14.9666 5.04044 14.9666 3.425C14.9666 1.80957 13.6085 0.5 11.9332 0.5C10.258 0.5 8.8999 1.80957 8.8999 3.425C8.8999 5.04044 10.258 6.35 11.9332 6.35Z" fill="#7B83EB"/>
<path d="M15.9779 7.25H7.42203C6.93817 7.26155 6.55541 7.64876 6.56664 8.11535V13.3079C6.49907 16.1079 8.79635 18.4315 11.7 18.5C14.6036 18.4315 16.9009 16.1079 16.8333 13.3079V8.11535C16.8445 7.64876 16.4618 7.26155 15.9779 7.25Z" fill="#7B83EB"/>
<path opacity="0.1" d="M12.1667 7.25V14.5265C12.1643 14.8602 11.9546 15.1599 11.6347 15.287C11.5328 15.3286 11.4233 15.35 11.3127 15.35H6.97732C6.91666 15.2015 6.86066 15.053 6.81398 14.9C6.65063 14.3836 6.56728 13.8468 6.56665 13.307V8.114C6.55543 7.64815 6.93756 7.26155 7.42065 7.25H12.1667Z" fill="black"/>
<path opacity="0.2" d="M11.7 7.25V14.9765C11.7 15.0832 11.6778 15.1888 11.6347 15.287C11.5029 15.5955 11.192 15.7978 10.846 15.8H7.19666C7.11732 15.6515 7.04266 15.503 6.97732 15.35C6.91198 15.197 6.86066 15.053 6.81398 14.9C6.65063 14.3836 6.56728 13.8468 6.56665 13.307V8.114C6.55543 7.64815 6.93756 7.26155 7.42065 7.25H11.7Z" fill="black"/>
<path opacity="0.2" d="M11.7 7.25V14.0765C11.6964 14.5299 11.3162 14.8966 10.846 14.9H6.81398C6.65063 14.3836 6.56728 13.8468 6.56665 13.307V8.114C6.55543 7.64815 6.93756 7.26155 7.42065 7.25H11.7Z" fill="black"/>
<path opacity="0.2" d="M11.2333 7.25V14.0765C11.2298 14.5299 10.8495 14.8966 10.3793 14.9H6.81398C6.65063 14.3836 6.56728 13.8468 6.56665 13.307V8.114C6.55543 7.64815 6.93756 7.26155 7.42065 7.25H11.2333Z" fill="black"/>
<path opacity="0.1" d="M12.1666 4.92347V6.34097C12.0872 6.34546 12.0126 6.34997 11.9332 6.34997C11.8539 6.34997 11.7792 6.34547 11.6999 6.34097C11.5424 6.33089 11.3861 6.30679 11.2332 6.26897C10.2882 6.05317 9.5075 5.41409 9.13322 4.54997C9.06883 4.40485 9.01882 4.25418 8.98389 4.09998H11.3126C11.7835 4.10169 12.1648 4.46937 12.1666 4.92347Z" fill="black"/>
<path opacity="0.2" d="M11.7 5.37354V6.34104C11.5424 6.33096 11.3862 6.30686 11.2333 6.26905C10.2883 6.05325 9.50757 5.41417 9.1333 4.55005H10.846C11.3169 4.55177 11.6982 4.91945 11.7 5.37354Z" fill="black"/>
<path opacity="0.2" d="M11.7 5.37354V6.34104C11.5424 6.33096 11.3862 6.30686 11.2333 6.26905C10.2883 6.05325 9.50757 5.41417 9.1333 4.55005H10.846C11.3169 4.55177 11.6982 4.91945 11.7 5.37354Z" fill="black"/>
<path opacity="0.2" d="M11.2333 5.37355V6.26905C10.2883 6.05324 9.50757 5.41417 9.1333 4.55005H10.3793C10.8502 4.55178 11.2315 4.91946 11.2333 5.37355Z" fill="black"/>
<path d="M1.82195 4.55005H10.3778C10.8502 4.55005 11.2332 4.91935 11.2332 5.37489V13.6252C11.2332 14.0807 10.8502 14.45 10.3778 14.45H1.82195C1.34952 14.45 0.966553 14.0807 0.966553 13.6252V5.37489C0.966553 4.91935 1.34953 4.55005 1.82195 4.55005Z" fill="url(#paint0_linear_19_2)"/>
<path d="M8.35127 7.69004H6.64093V12.181H5.55128V7.69004H3.84888V6.81885H8.35127V7.69004Z" fill="white"/>
<defs>
<linearGradient id="paint0_linear_19_2" x1="2.75008" y1="3.90552" x2="9.0909" y2="15.2943" gradientUnits="userSpaceOnUse">
<stop stop-color="#5A62C3"/>
<stop offset="0.5" stop-color="#4D55BD"/>
<stop offset="1" stop-color="#3940AB"/>
</linearGradient>
</defs>
</svg>
