<svg width="34" height="34" viewBox="0 0 34 34" fill="none" xmlns="http://www.w3.org/2000/svg">
<path d="M6.74992 25.5C8.16658 24.4167 9.74992 23.5622 11.4999 22.9367C13.2499 22.3122 15.0833 22 16.9999 22C18.9166 22 20.7499 22.3122 22.4999 22.9367C24.2499 23.5622 25.8333 24.4167 27.2499 25.5C28.2221 24.3611 28.9794 23.0695 29.5216 21.625C30.0627 20.1806 30.3333 18.6389 30.3333 17C30.3333 13.3056 29.0349 10.1595 26.4383 7.56168C23.8405 4.96501 20.6944 3.66668 16.9999 3.66668C13.3055 3.66668 10.1599 4.96501 7.56325 7.56168C4.96547 10.1595 3.66659 13.3056 3.66659 17C3.66659 18.6389 3.9377 20.1806 4.47992 21.625C5.02103 23.0695 5.7777 24.3611 6.74992 25.5ZM16.9999 18.6667C15.361 18.6667 13.9788 18.1045 12.8533 16.98C11.7288 15.8545 11.1666 14.4722 11.1666 12.8333C11.1666 11.1945 11.7288 9.81223 12.8533 8.68668C13.9788 7.56223 15.361 7.00001 16.9999 7.00001C18.6388 7.00001 20.021 7.56223 21.1466 8.68668C22.271 9.81223 22.8333 11.1945 22.8333 12.8333C22.8333 14.4722 22.271 15.8545 21.1466 16.98C20.021 18.1045 18.6388 18.6667 16.9999 18.6667ZM16.9999 33.6667C14.6944 33.6667 12.5277 33.2289 10.4999 32.3533C8.47214 31.4789 6.70825 30.2917 5.20825 28.7917C3.70825 27.2917 2.52103 25.5278 1.64659 23.5C0.77103 21.4722 0.333252 19.3056 0.333252 17C0.333252 14.6945 0.77103 12.5278 1.64659 10.5C2.52103 8.47223 3.70825 6.70834 5.20825 5.20834C6.70825 3.70834 8.47214 2.52057 10.4999 1.64501C12.5277 0.770566 14.6944 0.333344 16.9999 0.333344C19.3055 0.333344 21.4721 0.770566 23.4999 1.64501C25.5277 2.52057 27.2916 3.70834 28.7916 5.20834C30.2916 6.70834 31.4788 8.47223 32.3533 10.5C33.2288 12.5278 33.6666 14.6945 33.6666 17C33.6666 19.3056 33.2288 21.4722 32.3533 23.5C31.4788 25.5278 30.2916 27.2917 28.7916 28.7917C27.2916 30.2917 25.5277 31.4789 23.4999 32.3533C21.4721 33.2289 19.3055 33.6667 16.9999 33.6667Z" fill="#FCFDFD"/>
</svg>
